<?xml version="1.0" encoding="UTF-8"?>
<!DOCTYPE svg PUBLIC "-//W3C//DTD SVG 1.1//EN" "http://www.w3.org/Graphics/SVG/1.1/DTD/svg11.dtd">
<!-- Creator: CorelDRAW X7 -->
<svg xmlns="http://www.w3.org/2000/svg" xml:space="preserve" width="19.4732mm" height="4.9106mm" version="1.1" style="shape-rendering:geometricPrecision; text-rendering:geometricPrecision; image-rendering:optimizeQuality; fill-rule:evenodd; clip-rule:evenodd"
viewBox="0 0 1947 491"
 xmlns:xlink="http://www.w3.org/1999/xlink">
 <defs>
  <style type="text/css">
   <![CDATA[
    .str0 {stroke:#9D9E9E;stroke-width:24.69}
    .fil4 {fill:none;fill-rule:nonzero}
    .fil3 {fill:#898989;fill-rule:nonzero}
    .fil2 {fill:#2B2A29;fill-rule:nonzero}
    .fil0 {fill:#009846;fill-rule:nonzero}
    .fil1 {fill:#264796;fill-rule:nonzero}
   ]]>
  </style>
 </defs>
 <g id="Layer_x0020_1">
  <metadata id="CorelCorpID_0Corel-Layer"/>
  <path class="fil0" d="M452 192l72 -105c7,-11 11,-18 11,-21 0,-3 -2,-6 -7,-8 -5,-2 -11,-3 -19,-3l-9 0 0 -4 96 0 0 4c-17,1 -29,3 -36,7 -7,3 -16,12 -25,26l-35 52 104 180 26 0 0 4 -130 0 0 -4 24 0 -72 -128 0 128 0 -128z"/>
  <polygon class="fil1" points="372,51 432,320 458,320 458,324 324,324 324,320 356,320 306,51 "/>
  <path class="fil1" d="M411 195c-52,-7 -156,74 -156,108 0,11 8,17 25,17l6 0 0 4 -74 0 0 -4 5 0c8,0 17,-1 18,-6 9,-44 96,-128 178,-130l-2 11z"/>
  <path class="fil2" d="M790 109l-12 34 24 0 -12 -34zm-5 -23l25 0 28 81 5 0 0 11 -41 0 0 -11 8 0 -4 -12 -32 0 -4 12 8 0 0 11 -27 0 0 -11 6 0 28 -81zm123 37l-19 18c-1,-6 -3,-11 -6,-14 -2,-4 -5,-5 -7,-5 -3,0 -4,1 -5,2 -2,2 -2,5 -2,8 0,9 2,15 5,20 3,6 8,8 13,8 3,0 6,-1 9,-2 2,-2 5,-4 6,-6l7 4c-4,8 -8,14 -14,18 -5,4 -11,6 -18,6 -9,0 -16,-3 -21,-9 -6,-6 -8,-14 -8,-23 0,-10 3,-19 11,-27 7,-8 15,-12 25,-12 5,0 9,2 13,4 4,2 8,6 11,10zm67 0l-18 18c-2,-6 -4,-11 -7,-14 -2,-4 -5,-5 -7,-5 -2,0 -4,1 -5,2 -1,2 -2,5 -2,8 0,9 2,15 5,20 4,6 8,8 13,8 3,0 6,-1 9,-2 2,-2 5,-4 7,-6l6 4c-4,8 -8,14 -14,18 -5,4 -11,6 -18,6 -9,0 -16,-3 -21,-9 -5,-6 -8,-14 -8,-23 0,-10 3,-19 11,-27 7,-8 15,-12 25,-12 5,0 9,2 14,4 4,2 7,6 10,10zm57 30c0,-9 -1,-17 -5,-23 -3,-7 -7,-10 -12,-10 -2,0 -4,1 -6,4 -1,2 -2,6 -2,11 0,10 2,18 5,24 4,7 7,10 12,10 2,0 5,-1 6,-4 2,-3 2,-7 2,-12zm-12 -44c11,0 19,4 26,10 8,7 11,15 11,26 0,10 -3,18 -10,25 -8,6 -16,10 -27,10 -11,0 -20,-4 -27,-10 -7,-7 -11,-15 -11,-25 0,-11 4,-19 11,-26 7,-6 16,-10 27,-10zm75 0l1 0 0 46c0,3 1,5 2,6 1,2 3,3 5,3 2,0 3,-1 5,-2 2,0 3,-2 5,-3l0 -35 -5 1 0 -8 28 -8 1 0 0 60 5 0 0 9 -28 0 -2 -8c-4,3 -7,5 -11,7 -3,2 -7,3 -10,3 -6,0 -11,-2 -14,-6 -3,-3 -5,-8 -5,-15l0 -35 -4 1 0 -8 27 -8zm89 0l1 0 -1 12c5,-4 9,-7 13,-9 4,-2 8,-3 11,-3 6,0 11,2 14,6 4,3 6,8 6,15l0 39 4 0 0 9 -33 0 0 -9 4 0 0 -35c0,-3 0,-5 -1,-6 -2,-2 -3,-3 -6,-3 -2,0 -4,1 -6,2 -2,1 -4,2 -6,4l0 38 5 0 0 9 -33 0 0 -9 4 0 0 -45 -4 1 0 -8 28 -8zm83 -15l7 2 0 16 12 0 -1 8c-1,1 -1,2 -1,2 0,1 -1,1 -2,1l-8 0 0 34c0,3 1,6 1,7 1,1 3,2 5,2 1,0 2,0 2,-1 1,0 2,0 3,-1l4 5c-3,4 -7,6 -10,8 -4,2 -8,3 -12,3 -6,0 -10,-2 -13,-5 -3,-3 -4,-7 -4,-14l0 -38 -6 0 0 -8c6,-2 11,-4 15,-8 3,-3 6,-7 8,-13zm58 15l1 0c0,3 0,6 -1,7 0,2 0,4 0,5l0 48 5 0 0 9 -33 0 0 -9 4 0 0 -45 -4 1 0 -8 28 -8zm-9 -20c3,0 6,0 7,2 2,1 3,3 3,5 0,4 -1,6 -4,9 -4,2 -8,3 -12,3 -3,0 -5,-1 -7,-2 -1,-2 -2,-3 -2,-6 0,-3 1,-6 4,-8 3,-2 7,-3 11,-3zm57 20l0 0 0 12c5,-4 9,-7 13,-9 4,-2 7,-3 11,-3 6,0 11,2 14,6 3,3 5,8 5,15l0 39 5 0 0 9 -34 0 0 -9 5 0 0 -35c0,-3 -1,-5 -2,-6 -1,-2 -3,-3 -5,-3 -2,0 -4,1 -6,2 -2,1 -4,2 -6,4l0 38 5 0 0 9 -34 0 0 -9 5 0 0 -45 -5 1 0 -8 29 -8zm80 17c0,7 1,14 4,19 3,6 6,9 9,9 2,0 4,-1 5,-3 1,-1 2,-3 2,-6 0,-8 -1,-14 -4,-19 -3,-6 -6,-9 -10,-9 -2,0 -3,1 -4,3 -1,1 -2,3 -2,6zm11 54c-1,1 -2,2 -2,4 -1,1 -1,3 -1,4 0,3 0,4 1,6 1,1 3,2 4,2 2,0 3,-1 4,-2 1,-1 1,-2 1,-4 0,-2 0,-4 -2,-6 -1,-2 -3,-3 -5,-4zm-35 -11c5,-1 10,-3 14,-4 4,-1 8,-3 11,-4 -7,-2 -13,-5 -17,-9 -4,-5 -6,-10 -6,-16 0,-8 3,-14 9,-19 6,-5 14,-8 23,-8 2,0 5,1 7,1 2,0 4,1 6,1 1,-5 3,-8 4,-10 2,-2 5,-2 8,-2 1,0 2,0 3,0 0,0 1,0 2,0l-3 13c-1,-1 -2,-1 -2,-1 -1,-1 -2,-1 -2,-1 -1,0 -2,1 -2,1 0,0 -1,1 -1,1 0,0 2,3 6,8 4,4 6,10 6,15 0,8 -3,14 -8,19 -6,5 -15,9 -27,12 12,1 20,3 25,6 5,3 8,7 8,12 0,5 -3,10 -9,13 -5,4 -12,6 -20,6 -7,0 -12,-1 -16,-4 -4,-2 -6,-5 -6,-9 0,-3 2,-6 4,-8 2,-2 5,-4 9,-5 -2,0 -4,-1 -6,-1 -1,0 -2,0 -4,0 -1,0 -2,0 -3,0 -2,0 -3,1 -5,1l-8 -8zm136 -38c-2,2 -3,4 -4,6 -1,2 -1,4 -1,6 0,5 2,10 5,14 4,4 8,6 13,6 2,0 3,0 5,-1 1,0 2,-1 4,-1 -4,-4 -8,-8 -11,-13 -4,-5 -7,-10 -11,-17zm18 -11c2,3 5,7 8,11 3,5 7,10 11,15 1,-2 1,-4 2,-5 0,-2 1,-4 1,-6 0,-2 -1,-4 -2,-5 -1,-1 -2,-2 -4,-3l0 -9 28 0 0 10 -10 0c0,4 -1,9 -2,13 -1,4 -3,9 -6,13 3,4 6,6 9,7 3,2 6,3 8,3 2,0 3,-1 4,-1 1,0 2,-1 3,-2l4 4c-3,5 -6,9 -10,11 -4,2 -7,4 -11,4 -3,0 -7,-1 -10,-3 -3,-2 -7,-4 -10,-7 -4,3 -8,5 -13,7 -5,2 -10,3 -15,3 -9,0 -17,-3 -23,-8 -6,-6 -9,-12 -9,-20 0,-6 2,-12 6,-17 4,-5 9,-9 17,-14 -1,-2 -2,-5 -3,-7 -1,-3 -1,-5 -1,-7 0,-7 3,-13 8,-17 5,-4 12,-6 21,-6 7,0 13,1 17,4 4,3 6,6 6,11 0,5 -2,8 -5,11 -4,4 -10,6 -19,10zm-4 -8c3,-2 5,-4 6,-6 1,-2 2,-4 2,-6 0,-3 0,-5 -1,-6 -1,-1 -3,-2 -5,-2 -2,0 -4,1 -5,2 -1,2 -1,4 -1,6 0,1 0,3 0,4 1,2 2,5 4,8z"/>
  <path class="fil2" d="M663 223l9 0 1 3 52 0 0 -3 10 0 2 28 -9 0c-1,-4 -2,-7 -4,-9 -3,-3 -6,-4 -10,-4l-1 0 0 70 8 0 0 10 -44 0 0 -10 8 0 0 -70 -2 0c-4,0 -7,1 -9,4 -2,2 -3,5 -4,9l-9 0 2 -28zm120 60c-1,0 -1,0 -2,0 -1,0 -1,0 -1,0 -4,0 -7,1 -9,3 -2,2 -3,5 -3,9 0,3 1,6 2,8 1,2 3,3 6,3 2,0 4,-1 5,-3 2,-1 2,-3 2,-6l0 -14zm-22 -36l7 3 -1 3c2,-1 5,-2 8,-2 3,-1 6,-1 9,-1 7,0 13,2 17,6 4,3 6,9 6,15l0 39 5 0 0 8 -27 0 -2 -6c-3,2 -6,4 -9,6 -3,1 -6,2 -9,2 -6,0 -12,-2 -16,-6 -3,-4 -6,-9 -6,-15 0,-8 3,-14 9,-18 6,-4 14,-6 26,-6 1,0 1,0 2,0 1,0 2,0 3,0l0 -4c0,-2 0,-4 -2,-5 -1,-1 -3,-2 -6,-2 -3,0 -6,1 -8,2 -3,2 -5,4 -7,7l-8 -4 9 -22zm63 5l38 0 0 8 -6 0 8 14 9 -14 -4 0 0 -8 19 0 0 8 -4 0 -15 23 15 27 5 0 0 8 -37 0 0 -8 6 0 -10 -18 -12 18 5 0 0 8 -21 0 0 -8 4 0 18 -27 -13 -23 -4 0 -1 -8zm176 -18l4 -4 6 8 -29 23 -5 -6c1,-1 2,-3 2,-4 1,-1 1,-2 1,-4 0,-3 -1,-5 -2,-7 -2,-1 -4,-2 -7,-2 -3,0 -7,1 -9,5 -2,4 -3,9 -3,16 0,11 2,21 8,28 5,8 12,12 20,12 4,0 7,-1 11,-3 3,-1 6,-4 10,-7l7 6c-6,8 -12,15 -18,19 -7,4 -14,6 -22,6 -13,0 -22,-4 -30,-12 -8,-9 -12,-19 -12,-32 0,-7 1,-13 3,-19 2,-5 5,-11 9,-15 5,-6 10,-10 16,-13 6,-3 12,-5 18,-5 5,0 9,1 12,3 4,1 7,4 10,7zm67 59c0,-9 -2,-16 -5,-23 -4,-7 -8,-10 -12,-10 -3,0 -5,1 -6,4 -2,3 -2,7 -2,12 0,9 1,17 5,24 3,6 7,10 11,10 3,0 5,-2 7,-4 1,-3 2,-7 2,-13zm-13 -43c11,0 20,3 27,10 7,6 11,15 11,25 0,10 -4,18 -11,25 -7,7 -16,10 -27,10 -10,0 -19,-3 -26,-10 -8,-7 -11,-15 -11,-25 0,-10 3,-19 11,-25 7,-7 16,-10 26,-10zm77 0l1 0 0 11c4,-3 9,-6 12,-8 5,-2 8,-3 12,-3 6,0 10,2 14,5 3,4 5,9 5,15l0 40 4 0 0 8 -33 0 0 -8 5 0 0 -36c0,-2 -1,-5 -2,-6 -2,-2 -3,-2 -6,-2 -2,0 -4,0 -6,1 -2,1 -4,2 -5,4l0 39 4 0 0 8 -33 0 0 -8 5 0 0 -46 -5 1 0 -7 28 -8zm109 7l-9 16c-4,-5 -8,-8 -10,-10 -3,-2 -6,-3 -8,-3 -2,0 -3,0 -3,1 -1,0 -2,1 -2,3 0,1 1,2 3,4 1,1 4,3 9,5 9,5 16,9 18,12 3,3 4,7 4,11 0,7 -2,12 -8,17 -6,5 -13,7 -21,7 -5,0 -9,-1 -14,-2 -4,-2 -9,-4 -13,-8l11 -17c5,5 9,9 13,12 4,3 7,4 10,4 1,0 3,0 3,-1 1,-1 1,-2 1,-3 0,-2 -4,-6 -12,-10 0,0 0,0 0,0 0,0 -1,-1 -2,-1 -12,-7 -18,-14 -18,-22 0,-6 3,-12 7,-16 5,-4 11,-6 19,-6 4,0 8,1 11,2 4,1 8,3 11,5zm40 -7l1 0 0 45c0,3 0,5 1,7 2,1 3,2 5,2 2,0 4,0 5,-1 2,-1 4,-2 5,-3l0 -36 -4 1 0 -7 27 -8 1 0 0 60 5 0 0 8 -27 0 -3 -8c-4,3 -7,6 -11,7 -3,2 -6,3 -10,3 -5,0 -10,-2 -13,-5 -4,-4 -5,-9 -5,-15l0 -36 -5 1 0 -7 28 -8zm93 -25l0 8 -5 2 0 75 5 0 0 8 -33 0 0 -8 4 0 0 -67 -4 1 0 -8 33 -11zm36 10l6 1 0 16 12 0 -1 8c0,2 -1,2 -1,3 0,0 0,0 -1,0l-9 0 0 34c0,4 1,6 2,7 1,2 2,2 4,2 1,0 2,0 3,0 1,0 2,-1 3,-1l3 5c-3,3 -6,6 -10,7 -4,2 -7,3 -11,3 -6,0 -11,-2 -14,-4 -2,-3 -4,-8 -4,-15l0 -38 -6 0 0 -8c6,-1 11,-4 15,-7 4,-4 7,-8 9,-13zm65 48c-1,0 -1,0 -2,0 0,0 -1,0 -1,0 -4,0 -7,1 -9,3 -2,2 -3,5 -3,9 0,3 1,6 2,8 1,2 3,3 6,3 2,0 4,-1 5,-3 2,-1 2,-3 2,-6l0 -14zm-22 -36l7 3 -1 3c2,-1 5,-2 8,-2 3,-1 6,-1 9,-1 7,0 13,2 17,6 4,3 7,9 7,15l0 39 4 0 0 8 -26 0 -2 -6c-3,2 -6,4 -10,6 -3,1 -6,2 -9,2 -6,0 -11,-2 -15,-6 -4,-4 -6,-9 -6,-15 0,-8 2,-14 8,-18 6,-4 15,-6 26,-6 1,0 1,0 2,0 1,0 2,0 3,0l0 -4c0,-2 0,-4 -2,-5 -1,-1 -3,-2 -6,-2 -3,0 -5,1 -8,2 -3,2 -5,4 -7,7l-8 -4 9 -22zm94 3l0 0 0 11c4,-3 9,-6 13,-8 4,-2 7,-3 11,-3 6,0 10,2 14,5 3,4 5,9 5,15l0 40 5 0 0 8 -34 0 0 -8 5 0 0 -36c0,-2 -1,-5 -2,-6 -1,-2 -3,-2 -5,-2 -2,0 -4,0 -6,1 -2,1 -4,2 -6,4l0 39 4 0 0 8 -33 0 0 -8 5 0 0 -46 -5 1 0 -7 29 -8zm118 14l-18 17c-2,-6 -4,-10 -7,-14 -2,-3 -5,-5 -7,-5 -2,0 -4,1 -5,3 -1,2 -2,4 -2,8 0,8 2,15 5,20 4,5 8,8 13,8 3,0 6,-1 9,-3 2,-1 5,-3 7,-6l6 5c-4,7 -8,13 -14,17 -5,4 -11,6 -18,6 -9,0 -16,-3 -21,-9 -5,-6 -8,-13 -8,-22 0,-11 3,-20 11,-28 7,-7 15,-11 25,-11 5,0 9,1 14,3 4,3 7,6 10,11zm59 4c-1,0 -1,1 -2,1 0,0 -1,0 -1,0 -2,0 -3,0 -5,-1 -3,-1 -4,-1 -5,-1 -2,0 -3,0 -4,2 -2,1 -3,3 -4,5l9 20 12 -26zm-31 -18c1,2 2,5 3,8 1,3 2,6 4,11 4,-8 7,-12 10,-15 2,-2 5,-3 9,-3 1,0 4,0 7,1 3,1 5,1 7,1 1,0 2,0 3,0 1,-1 2,-1 3,-2l3 3c-1,1 -2,3 -3,5 -1,2 -2,5 -4,8l-25 54c-4,8 -8,13 -12,17 -3,3 -8,5 -13,5 -1,0 -3,0 -5,0 -2,-1 -3,-1 -5,-2l4 -18c2,1 4,2 6,3 2,0 3,0 5,0 2,0 4,0 5,-1 2,-1 3,-2 4,-4l2 -4 -26 -48 -4 1 -3 -6 25 -14z"/>
  <path class="fil3" d="M641 413l0 -37 6 0 0 16 29 0 0 -16 6 0 0 37 -6 0 0 -16 -29 0 0 16 -6 0zm58 0l0 -30 31 0 0 4 -25 0 0 8 15 0 0 5 -15 0 0 9 25 0 0 4 -31 0zm42 0l0 -30 5 0 0 26 24 0 0 4 -29 0zm61 -26l-17 0 0 10 17 0c2,0 2,0 3,-1 0,0 1,-1 1,-2l0 -4c0,-1 -1,-2 -1,-2 0,0 -1,-1 -3,-1zm-23 26l0 -30 26 0c2,0 4,0 5,1 1,1 2,3 2,5l0 7c0,2 -1,3 -2,4 -1,1 -3,2 -5,2l-20 0 0 11 -6 0zm85 0l0 -16 -19 -21 8 0 14 17 14 -17 8 0 -19 21 0 16 -6 0zm39 -4l25 0 0 -22 -25 0 0 22zm-6 -19c0,-3 1,-5 2,-6 1,-1 3,-1 6,-1l22 0c3,0 4,0 6,1 1,1 1,3 1,6l0 16c0,3 0,5 -1,6 -1,1 -3,1 -6,1l-22 0c-3,0 -5,0 -6,-1 -1,-1 -2,-3 -2,-6l0 -16zm56 -7l0 26 23 0 0 -26 5 0 0 23c0,3 0,5 -1,6 -1,1 -3,1 -6,1l-19 0c-3,0 -5,0 -6,-1 -1,-1 -2,-3 -2,-6l0 -23 6 0zm84 4l0 26 -6 0 0 -26 -14 0 0 -4 34 0 0 4 -14 0zm28 22l26 0 0 -22 -26 0 0 22zm-6 -19c0,-3 1,-5 2,-6 1,-1 3,-1 6,-1l22 0c3,0 5,0 6,1 1,1 1,3 1,6l0 16c0,3 0,5 -1,6 -1,1 -3,1 -6,1l-22 0c-3,0 -5,0 -6,-1 -1,-1 -2,-3 -2,-6l0 -16zm115 -9l-29 0 0 27 29 0 0 -11 -15 0 0 -4 21 0 0 12c0,3 0,5 -2,7 -1,1 -3,1 -7,1l-24 0c-3,0 -5,0 -6,-1 -2,-2 -2,-4 -2,-7l0 -20c0,-3 0,-6 2,-7 1,-1 3,-2 6,-2l24 0c4,0 6,1 7,2 2,1 2,4 2,7l0 1 -6 1 0 -6zm43 6l-16 0 0 10 16 0c2,0 3,0 3,0 0,-1 1,-2 1,-3l0 -4c0,-1 -1,-1 -1,-2 -1,0 -1,-1 -3,-1zm-22 26l0 -30 25 0c2,0 4,0 5,1 1,1 1,3 1,5l0 7c0,2 0,3 -1,4 -1,1 -3,2 -5,2l-4 0 13 11 -7 0 -13 -11 -8 0 0 11 -6 0zm50 -4l25 0 0 -22 -25 0 0 22zm-6 -19c0,-3 0,-5 1,-6 1,-1 3,-1 6,-1l22 0c3,0 5,0 6,1 1,1 2,3 2,6l0 16c0,3 -1,5 -2,6 -1,1 -3,1 -6,1l-22 0c-3,0 -5,0 -6,-1 -1,-1 -1,-3 -1,-6l0 -16zm57 23l-12 -30 6 0 8 23 9 -23 4 0 9 23 8 -23 5 0 -11 30 -5 0 -8 -22 -9 22 -4 0z"/>
  <line class="fil4 str0" x1="1355" y1="396" x2="1510" y2= "396" />
  <line class="fil4 str0" x1="452" y1="396" x2="607" y2= "396" />
 </g>
</svg>
