<?xml version="1.0" encoding="UTF-8"?>
<!DOCTYPE svg PUBLIC "-//W3C//DTD SVG 1.1//EN" "http://www.w3.org/Graphics/SVG/1.1/DTD/svg11.dtd">
<!-- Creator: CorelDRAW X7 -->
<svg xmlns="http://www.w3.org/2000/svg" xml:space="preserve" width="800px" height="500px" version="1.1" style="shape-rendering:geometricPrecision; text-rendering:geometricPrecision; image-rendering:optimizeQuality; fill-rule:evenodd; clip-rule:evenodd"
viewBox="0 0 800 500"
 xmlns:xlink="http://www.w3.org/1999/xlink">
 <defs>
  <style type="text/css">
   <![CDATA[
    .str0 {stroke:#9D9E9E;stroke-width:2.91615}
    .fil4 {fill:none;fill-rule:nonzero}
    .fil3 {fill:#898989;fill-rule:nonzero}
    .fil2 {fill:#2B2A29;fill-rule:nonzero}
    .fil0 {fill:#009846;fill-rule:nonzero}
    .fil1 {fill:#264796;fill-rule:nonzero}
   ]]>
  </style>
 </defs>
<symbol id="Symbol1" viewBox="131 93 538 315">
 <path class="fil0" d="M412 163l35 -52c4,-6 6,-9 6,-11 0,-1 -2,-3 -4,-4 -2,-1 -5,-1 -9,-1l-5 0 0 -2 48 0 0 2c-9,0 -15,1 -18,3 -4,2 -8,6 -13,13l-17 26 52 89 13 0 0 2 -65 0 0 -2 12 0 -35 -63 0 63 0 -63z"/>
 <polygon class="fil1" points="372,93 402,226 414,226 414,228 348,228 348,226 364,226 339,93 "/>
 <path class="fil1" d="M391 164c-26,-3 -77,37 -77,54 0,5 4,8 12,8l3 0 0 2 -37 0 0 -2 3 0c4,0 8,0 9,-3 4,-22 48,-63 88,-64l-1 5z"/>
 <path class="fil2" d="M197 254l-5 17 11 0 -6 -17zm-2 -12l12 0 14 41 3 0 0 5 -21 0 0 -5 4 0 -2 -6 -16 0 -2 6 4 0 0 5 -13 0 0 -5 3 0 14 -41zm61 19l-9 9c-1,-3 -2,-6 -3,-7 -2,-2 -3,-3 -4,-3 -1,0 -2,1 -3,2 0,1 -1,2 -1,4 0,4 1,7 3,9 2,3 4,4 6,4 2,0 3,0 5,-1 1,-1 2,-2 3,-3l3 2c-2,4 -4,7 -7,9 -2,2 -5,3 -9,3 -4,0 -7,-2 -10,-4 -3,-3 -4,-7 -4,-12 0,-5 2,-9 5,-13 4,-4 8,-6 13,-6 2,0 4,1 7,2 2,1 3,3 5,5zm33 0l-9 9c-1,-3 -2,-6 -3,-7 -1,-2 -3,-3 -4,-3 -1,0 -2,1 -2,2 -1,1 -1,2 -1,4 0,4 1,7 2,9 2,3 4,4 7,4 1,0 3,0 4,-1 1,-1 2,-2 3,-3l4 2c-2,4 -5,7 -7,9 -3,2 -6,3 -9,3 -5,0 -8,-2 -11,-4 -2,-3 -4,-7 -4,-12 0,-5 2,-9 6,-13 3,-4 7,-6 12,-6 3,0 5,1 7,2 2,1 4,3 5,5zm29 15c0,-5 -1,-9 -3,-12 -2,-3 -4,-5 -6,-5 -1,0 -2,1 -3,2 -1,2 -1,3 -1,6 0,5 1,9 3,12 1,3 3,5 5,5 2,0 3,-1 3,-2 1,-2 2,-4 2,-6zm-7 -22c6,0 10,2 14,5 3,3 5,8 5,13 0,5 -2,9 -5,12 -4,3 -8,5 -14,5 -5,0 -10,-2 -13,-5 -4,-3 -5,-7 -5,-12 0,-5 1,-10 5,-13 3,-3 8,-5 13,-5zm38 0l0 0 0 23c0,1 1,2 1,3 1,1 1,1 3,1 0,0 1,0 2,-1 1,0 2,-1 2,-1l0 -18 -2 1 0 -4 14 -4 0 0 0 30 3 0 0 4 -14 0 -1 -4c-2,2 -4,3 -5,4 -2,1 -4,1 -5,1 -3,0 -6,-1 -7,-3 -2,-1 -3,-4 -3,-7l0 -18 -2 1 0 -4 14 -4zm44 0l0 0 0 6c2,-2 4,-3 6,-4 2,-1 4,-2 6,-2 3,0 5,1 7,3 2,2 2,4 2,7l0 20 3 0 0 4 -17 0 0 -4 2 0 0 -18c0,-1 0,-2 0,-3 -1,-1 -2,-1 -3,-1 -1,0 -2,0 -3,1 -1,0 -2,1 -3,2l0 19 2 0 0 4 -16 0 0 -4 2 0 0 -23 -2 1 0 -4 14 -4zm41 -7l3 0 0 8 6 0 0 4c0,1 -1,1 -1,2 0,0 0,0 0,0l-5 0 0 17c0,1 1,3 1,3 1,1 1,1 2,1 1,0 1,0 2,0 0,0 1,0 1,-1l2 3c-2,2 -3,3 -5,4 -2,1 -4,1 -6,1 -3,0 -5,-1 -6,-2 -2,-2 -2,-4 -2,-7l0 -19 -4 0 0 -4c3,-1 6,-2 8,-4 2,-2 3,-4 4,-6zm29 7l0 0c0,2 0,3 0,4 0,1 0,1 0,2l0 24 2 0 0 4 -16 0 0 -4 2 0 0 -23 -2 1 0 -4 14 -4zm-5 -10c2,0 3,0 4,1 1,1 1,2 1,3 0,1 0,3 -2,4 -2,1 -4,1 -6,1 -1,0 -2,0 -3,-1 -1,0 -1,-1 -1,-2 0,-2 0,-3 2,-4 1,-2 3,-2 5,-2zm28 10l1 0 -1 6c3,-2 5,-3 7,-4 2,-1 4,-2 5,-2 3,0 6,1 7,3 2,2 3,4 3,7l0 20 2 0 0 4 -16 0 0 -4 2 0 0 -18c0,-1 0,-2 -1,-3 -1,-1 -1,-1 -3,-1 -1,0 -2,0 -3,1 -1,0 -2,1 -3,2l0 19 3 0 0 4 -17 0 0 -4 3 0 0 -23 -3 1 0 -4 14 -4zm40 8c0,4 1,7 2,10 2,3 3,4 5,4 1,0 2,0 2,-1 1,-1 1,-2 1,-3 0,-4 0,-7 -2,-10 -1,-3 -3,-4 -5,-4 -1,0 -1,1 -2,1 0,1 -1,2 -1,3zm6 27c-1,1 -1,1 -2,2 0,1 0,2 0,2 0,1 0,2 1,3 0,1 1,1 2,1 1,0 1,0 2,-1 0,0 0,-1 0,-2 0,-1 0,-2 -1,-3 0,-1 -1,-2 -2,-2zm-17 -5c2,-1 4,-2 6,-2 2,-1 4,-2 6,-2 -4,-1 -7,-3 -9,-5 -2,-2 -3,-5 -3,-8 0,-3 2,-7 5,-9 3,-3 7,-4 11,-4 1,0 3,0 4,0 1,1 2,1 3,1 0,-3 1,-4 2,-5 1,-1 2,-1 4,-1 0,0 1,0 1,0 0,0 1,0 1,0l-1 6c-1,0 -1,0 -2,0 0,0 0,0 0,0 -1,0 -1,0 -1,0 -1,0 -1,0 -1,1 0,0 1,1 3,3 2,3 3,5 3,8 0,4 -1,7 -4,9 -3,3 -7,5 -13,6 6,1 10,2 12,3 3,2 4,4 4,6 0,3 -1,5 -4,7 -3,2 -6,2 -10,2 -4,0 -6,0 -8,-1 -2,-1 -3,-3 -3,-5 0,-1 1,-3 2,-4 1,-1 2,-2 4,-2 -1,-1 -2,-1 -3,-1 0,0 -1,0 -2,0 0,0 -1,0 -1,0 -1,0 -2,0 -3,1l-3 -4zm67 -19c-1,1 -2,2 -2,3 0,1 -1,2 -1,3 0,2 1,5 3,7 2,2 4,3 7,3 0,0 1,0 2,-1 0,0 1,0 2,0 -2,-2 -4,-4 -6,-7 -2,-2 -3,-5 -5,-8zm9 -6c1,2 2,4 4,6 1,2 3,5 5,7 1,-1 1,-1 1,-2 0,-1 1,-2 1,-3 0,-1 -1,-2 -1,-3 -1,0 -1,-1 -2,-1l0 -5 13 0 0 5 -4 0c0,2 -1,5 -1,7 -1,2 -2,4 -3,6 1,2 3,3 4,4 1,1 3,1 4,1 1,0 2,0 2,0 1,0 1,-1 1,-1l3 2c-2,2 -4,4 -5,5 -2,1 -4,2 -6,2 -2,0 -3,0 -5,-1 -1,-1 -3,-2 -5,-4 -2,2 -4,3 -6,4 -3,1 -5,1 -7,1 -5,0 -9,-1 -12,-4 -3,-3 -4,-6 -4,-10 0,-3 1,-6 2,-8 2,-2 5,-5 9,-7 -1,-1 -1,-3 -2,-4 0,-1 0,-2 0,-3 0,-4 1,-6 4,-8 2,-2 6,-3 10,-3 4,0 6,0 9,2 2,1 3,3 3,5 0,2 -1,4 -3,6 -2,1 -5,3 -9,4zm-2 -4c1,-1 2,-2 3,-3 0,-1 1,-2 1,-3 0,-1 0,-2 -1,-2 0,-1 -1,-1 -2,-1 -1,0 -2,0 -3,1 0,0 0,1 0,2 0,1 0,2 0,3 0,0 1,2 2,3z"/>
 <path class="fil2" d="M134 310l5 0 0 2 26 0 0 -2 5 0 1 14 -5 0c0,-2 -1,-3 -2,-4 -1,-1 -2,-2 -4,-2l-1 0 0 35 4 0 0 5 -22 0 0 -5 4 0 0 -35 -1 0c-2,0 -3,1 -4,2 -1,1 -2,2 -2,4l-5 0 1 -14zm60 30c-1,0 -1,0 -1,0 0,0 -1,0 -1,0 -2,0 -3,1 -4,2 -1,1 -2,2 -2,4 0,2 1,3 1,4 1,1 2,1 3,1 1,0 2,0 3,-1 1,0 1,-1 1,-3l0 -7zm-11 -18l3 2 0 2c1,-1 2,-1 4,-2 1,0 3,0 4,0 4,0 7,1 9,3 2,2 3,4 3,8l0 19 2 0 0 4 -13 0 -1 -3c-1,1 -3,2 -5,3 -1,0 -3,1 -4,1 -3,0 -6,-1 -8,-3 -2,-2 -3,-5 -3,-8 0,-4 2,-7 4,-9 3,-2 8,-3 13,-3 1,0 1,0 1,0 1,0 1,0 2,0l0 -1c0,-2 0,-2 -1,-3 -1,-1 -2,-1 -3,-1 -2,0 -3,0 -4,1 -1,1 -3,2 -4,3l-4 -1 5 -12zm31 3l19 0 0 4 -3 0 4 7 4 -7 -2 0 0 -4 10 0 0 4 -2 0 -7 11 7 14 3 0 0 4 -19 0 0 -4 3 0 -5 -9 -6 9 3 0 0 4 -11 0 0 -4 2 0 9 -14 -6 -11 -2 0 -1 -4zm87 -9l3 -2 2 4 -14 11 -3 -3c1,0 1,-1 2,-1 0,-1 0,-2 0,-2 0,-2 0,-3 -1,-4 -1,-1 -2,-1 -3,-1 -2,0 -4,1 -5,3 -1,1 -2,4 -2,7 0,6 2,11 4,14 3,4 6,6 10,6 2,0 4,0 6,-1 2,-1 3,-2 5,-4l3 3c-2,4 -5,8 -9,10 -3,2 -7,3 -11,3 -6,0 -11,-2 -14,-7 -4,-4 -6,-9 -6,-15 0,-4 0,-7 1,-9 1,-3 3,-6 5,-8 2,-3 5,-5 8,-7 3,-1 5,-2 9,-2 2,0 4,1 6,1 2,1 3,2 4,4zm34 29c0,-4 -1,-8 -3,-11 -2,-4 -4,-5 -6,-5 -1,0 -2,1 -3,2 0,1 -1,3 -1,6 0,4 1,8 3,12 1,3 3,5 5,5 2,0 3,-1 4,-2 0,-2 1,-4 1,-7zm-7 -21c6,0 10,2 14,5 3,3 5,7 5,12 0,5 -2,9 -5,13 -4,3 -8,5 -14,5 -5,0 -9,-2 -13,-5 -3,-4 -5,-8 -5,-13 0,-5 2,-9 5,-12 4,-3 8,-5 13,-5zm39 0l0 0 0 6c2,-2 4,-4 6,-5 2,-1 4,-1 6,-1 3,0 5,1 7,3 1,1 2,4 2,7l0 20 2 0 0 4 -16 0 0 -4 2 0 0 -18c0,-1 0,-2 -1,-3 0,-1 -1,-1 -2,-1 -1,0 -2,0 -3,0 -1,1 -2,2 -3,2l0 20 2 0 0 4 -17 0 0 -4 3 0 0 -23 -3 0 0 -3 15 -4zm54 4l-5 7c-2,-2 -4,-4 -5,-5 -2,-1 -3,-1 -4,-1 -1,0 -1,0 -1,0 -1,1 -1,1 -1,2 0,0 0,1 1,2 1,0 2,1 4,2 5,3 8,5 10,6 1,2 2,4 2,6 0,3 -2,6 -4,8 -3,2 -7,4 -11,4 -2,0 -5,-1 -7,-2 -2,0 -4,-2 -6,-3l5 -9c3,3 5,5 7,6 2,2 3,2 5,2 0,0 1,0 1,0 1,-1 1,-1 1,-2 0,-1 -2,-3 -6,-5 0,0 0,0 0,0 0,0 -1,0 -1,0 -6,-4 -9,-7 -9,-11 0,-3 1,-6 3,-8 3,-2 6,-3 10,-3 2,0 3,0 5,1 2,0 4,1 6,3zm19 -4l1 0 0 22c0,2 0,3 1,4 0,0 1,1 2,1 1,0 2,0 3,-1 0,0 1,-1 2,-1l0 -18 -2 0 0 -3 13 -4 1 0 0 30 2 0 0 4 -13 0 -2 -4c-1,1 -3,2 -5,3 -2,1 -3,2 -5,2 -3,0 -5,-1 -7,-3 -1,-2 -2,-4 -2,-7l0 -18 -2 0 0 -3 13 -4zm47 -13l0 5 -3 0 0 38 3 0 0 4 -17 0 0 -4 2 0 0 -34 -2 1 0 -4 17 -6zm17 5l4 1 0 8 5 0 0 4c0,1 0,1 -1,1 0,0 0,0 0,0l-4 0 0 17c0,2 0,3 0,4 1,1 2,1 3,1 0,0 0,0 1,0 0,0 1,-1 1,-1l2 3c-2,1 -3,2 -5,3 -2,1 -4,2 -6,2 -3,0 -5,-1 -6,-3 -2,-1 -2,-3 -2,-7l0 -19 -3 0 0 -3c3,-1 5,-3 7,-4 2,-2 3,-4 4,-7zm33 24c-1,0 -1,0 -1,0 0,0 -1,0 -1,0 -2,0 -3,1 -4,2 -1,1 -2,2 -2,4 0,2 1,3 1,4 1,1 2,1 3,1 1,0 2,0 3,-1 1,0 1,-1 1,-3l0 -7zm-11 -18l3 2 0 2c1,-1 2,-1 4,-2 1,0 3,0 4,0 4,0 7,1 9,3 2,2 3,4 3,8l0 19 2 0 0 4 -13 0 -1 -3c-1,1 -3,2 -5,3 -1,0 -3,1 -4,1 -3,0 -6,-1 -8,-3 -2,-2 -3,-5 -3,-8 0,-4 2,-7 4,-9 3,-2 8,-3 13,-3 1,0 1,0 1,0 1,0 1,0 2,0l0 -1c0,-2 0,-2 -1,-3 -1,-1 -2,-1 -3,-1 -2,0 -3,0 -4,1 -2,1 -3,2 -4,3l-4 -1 5 -12zm46 2l1 0 -1 6c3,-2 5,-4 7,-5 2,-1 4,-1 5,-1 3,0 6,1 7,3 2,1 3,4 3,7l0 20 2 0 0 4 -17 0 0 -4 3 0 0 -18c0,-1 -1,-2 -1,-3 -1,-1 -2,-1 -3,-1 -1,0 -2,0 -3,0 -1,1 -2,2 -3,2l0 20 3 0 0 4 -17 0 0 -4 2 0 0 -23 -2 0 0 -3 14 -4zm59 7l-9 9c-1,-3 -2,-6 -3,-8 -1,-1 -3,-2 -4,-2 -1,0 -2,0 -3,1 0,1 0,3 0,4 0,4 0,8 2,10 2,3 4,4 7,4 1,0 3,0 4,-1 1,-1 2,-2 3,-3l3 2c-1,4 -4,7 -6,9 -3,2 -6,3 -9,3 -5,0 -8,-2 -11,-5 -3,-3 -4,-6 -4,-11 0,-5 2,-10 6,-13 3,-4 7,-6 12,-6 2,0 5,0 7,2 2,1 4,3 5,5zm29 2c0,0 0,0 -1,0 0,0 0,0 0,0 -1,0 -2,0 -3,0 -1,-1 -2,-1 -2,-1 -1,0 -2,0 -2,1 -1,1 -2,2 -2,3l4 10 6 -13zm-15 -9c0,1 1,2 1,4 1,1 2,3 2,5 2,-3 4,-6 5,-7 1,-1 3,-2 5,-2 0,0 2,1 3,1 2,0 3,1 4,1 0,0 1,-1 1,-1 1,0 1,0 2,0l1 1c0,1 -1,1 -1,2 -1,1 -2,3 -2,4l-13 27c-2,4 -4,7 -5,8 -2,2 -4,3 -7,3 -1,0 -2,0 -3,0 -1,0 -1,-1 -2,-1l2 -9c1,1 2,1 3,1 1,1 2,1 2,1 1,0 2,0 3,-1 1,0 1,-1 2,-2l1 -2 -13 -24 -2 1 -2 -3 13 -7z"/>
 <path class="fil3" d="M225 407l0 -18 3 0 0 7 14 0 0 -7 3 0 0 18 -3 0 0 -8 -14 0 0 8 -3 0zm28 0l0 -15 16 0 0 2 -13 0 0 4 8 0 0 3 -8 0 0 4 13 0 0 2 -16 0zm21 0l0 -15 3 0 0 13 12 0 0 2 -15 0zm31 -13l-9 0 0 5 9 0c0,0 1,0 1,0 0,0 0,-1 0,-1l0 -2c0,-1 0,-1 0,-1 0,-1 -1,-1 -1,-1zm-12 13l0 -15 13 0c1,0 2,0 3,1 0,0 0,1 0,2l0 3c0,2 0,2 0,3 -1,0 -2,0 -3,0l-10 0 0 6 -3 0zm42 0l0 -8 -9 -10 4 0 7 8 7 -8 4 0 -10 10 0 8 -3 0zm20 -2l12 0 0 -11 -12 0 0 11zm-3 -9c0,-2 0,-3 1,-3 0,-1 1,-1 3,-1l10 0c2,0 3,0 3,1 1,0 1,1 1,3l0 8c0,1 0,2 -1,3 0,0 -1,0 -3,0l-10 0c-2,0 -3,0 -3,0 -1,-1 -1,-2 -1,-3l0 -8zm28 -4l0 13 11 0 0 -13 3 0 0 12c0,1 -1,2 -1,3 -1,0 -2,0 -3,0l-9 0c-2,0 -3,0 -3,0 -1,-1 -1,-2 -1,-3l0 -12 3 0zm41 2l0 13 -3 0 0 -13 -7 0 0 -2 17 0 0 2 -7 0zm14 11l13 0 0 -11 -13 0 0 11zm-3 -9c0,-2 1,-3 1,-3 1,-1 2,-1 3,-1l11 0c1,0 2,0 3,1 0,0 1,1 1,3l0 8c0,1 -1,2 -1,3 -1,0 -2,0 -3,0l-11 0c-1,0 -2,0 -3,0 0,-1 -1,-2 -1,-3l0 -8zm57 -5l-14 0 0 14 14 0 0 -6 -7 0 0 -2 10 0 0 6c0,2 0,3 -1,3 0,1 -1,1 -3,1l-12 0c-2,0 -3,0 -3,-1 -1,0 -1,-1 -1,-3l0 -10c0,-1 0,-3 1,-3 0,-1 1,-1 3,-1l12 0c2,0 3,0 3,1 1,0 1,1 1,3l0 0 -3 1 0 -3zm22 3l-8 0 0 5 8 0c0,0 1,0 1,0 0,0 0,-1 0,-1l0 -2c0,-1 0,-1 0,-1 0,-1 -1,-1 -1,-1zm-11 13l0 -15 12 0c1,0 2,0 2,1 1,0 1,1 1,2l0 3c0,1 0,2 -1,3 0,0 -1,0 -2,0l-2 0 7 6 -4 0 -6 -6 -4 0 0 6 -3 0zm24 -2l13 0 0 -11 -13 0 0 11zm-3 -9c0,-2 1,-3 1,-3 1,-1 2,-1 3,-1l11 0c1,0 2,0 3,1 0,0 1,1 1,3l0 8c0,1 -1,2 -1,3 -1,0 -2,0 -3,0l-11 0c-1,0 -2,0 -3,0 0,-1 -1,-2 -1,-3l0 -8zm29 11l-6 -15 3 0 4 12 4 -12 2 0 4 12 5 -12 2 0 -6 15 -2 0 -4 -11 -4 11 -2 0z"/>
 <line class="fil4 str0" x1="579" y1="399" x2="656" y2= "399" />
 <line class="fil4 str0" x1="131" y1="399" x2="208" y2= "399" />
</symbol>
 <g id="Layer_x0020_1">
  <metadata id="CorelCorpID_0Corel-Layer"/>
  <g id="_2646289358176">
   <g>
    <path class="fil0" d="M412 122l50 -72c5,-7 7,-12 7,-15 0,-2 -1,-4 -5,-5 -3,-1 -7,-2 -13,-2l-6 0 0 -3 66 0 0 3c-12,0 -20,2 -25,4 -5,3 -10,9 -17,19l-24 35 72 124 18 0 0 3 -90 0 0 -3 17 0 -50 -88 0 88 0 -88z"/>
    <polygon class="fil1" points="357,25 398,210 416,210 416,213 324,213 324,210 346,210 312,25 "/>
    <path class="fil1" d="M384 124c-36,-5 -108,52 -108,75 0,7 6,11 17,11l4 0 0 3 -50 0 0 -3 3 0c6,0 11,0 12,-4 7,-30 67,-88 123,-89l-1 7z"/>
    <path class="fil2" d="M115 249l-8 23 16 0 -8 -23zm-4 -16l17 0 20 56 3 0 0 7 -28 0 0 -7 5 0 -3 -8 -21 0 -3 8 5 0 0 7 -18 0 0 -7 4 0 19 -56zm85 26l-13 12c-1,-4 -2,-7 -4,-10 -2,-2 -4,-3 -5,-3 -2,0 -3,0 -4,2 -1,1 -1,3 -1,5 0,6 1,10 3,14 3,3 6,5 10,5 2,0 3,0 5,-2 2,-1 4,-2 5,-4l4 3c-2,6 -5,10 -9,12 -4,3 -8,4 -13,4 -5,0 -10,-2 -14,-6 -4,-4 -6,-9 -6,-15 0,-7 3,-14 8,-19 5,-5 11,-8 17,-8 4,0 7,1 10,3 2,1 5,4 7,7zm46 0l-13 12c-1,-4 -2,-7 -4,-10 -1,-2 -3,-3 -5,-3 -2,0 -3,0 -4,2 0,1 -1,3 -1,5 0,6 1,10 4,14 2,3 5,5 9,5 2,0 4,0 6,-2 2,-1 3,-2 4,-4l5 3c-3,6 -6,10 -10,12 -3,3 -8,4 -12,4 -6,0 -11,-2 -15,-6 -4,-4 -5,-9 -5,-15 0,-7 2,-14 7,-19 5,-5 11,-8 18,-8 3,0 6,1 9,3 3,1 5,4 7,7zm40 20c0,-6 -2,-11 -4,-16 -2,-5 -5,-7 -8,-7 -2,0 -3,1 -4,3 -1,2 -2,5 -2,8 0,6 1,12 4,17 2,4 5,6 8,6 2,0 3,0 4,-2 1,-2 2,-5 2,-9zm-9 -30c7,0 13,3 18,7 5,5 8,10 8,17 0,7 -3,13 -8,18 -5,4 -11,6 -18,6 -8,0 -14,-2 -19,-6 -5,-5 -7,-11 -7,-18 0,-7 2,-12 7,-17 5,-4 11,-7 19,-7zm52 0l1 0 0 32c0,1 0,3 1,4 1,1 2,1 3,1 1,0 3,0 4,0 1,-1 2,-2 3,-3l0 -24 -3 1 0 -5 19 -6 1 0 0 41 3 0 0 6 -19 0 -2 -5c-2,2 -5,3 -7,5 -3,1 -5,1 -7,1 -4,0 -7,-1 -10,-3 -2,-3 -3,-6 -3,-11l0 -24 -3 1 0 -5 19 -6zm61 0l1 0 -1 8c4,-3 7,-4 9,-6 3,-1 6,-2 8,-2 4,0 7,1 10,4 2,2 3,6 3,10l0 27 3 0 0 6 -23 0 0 -6 3 0 0 -24c0,-2 0,-3 -1,-4 -1,-1 -2,-2 -4,-2 -1,0 -2,0 -4,1 -1,1 -2,2 -4,3l0 26 4 0 0 6 -24 0 0 -6 4 0 0 -31 -4 1 0 -5 20 -6zm58 -10l4 1 0 11 8 0 -1 5c0,1 0,2 0,2 0,0 -1,0 -1,0l-6 0 0 24c0,2 1,4 1,5 1,1 2,1 3,1 1,0 1,0 2,0 1,0 1,-1 2,-1l2 3c-2,3 -4,4 -7,6 -2,1 -5,1 -7,1 -5,0 -8,-1 -10,-3 -2,-2 -2,-5 -2,-9l0 -27 -5 0 0 -5c4,-1 8,-3 10,-5 3,-3 5,-6 7,-9zm39 10l1 0c0,2 0,4 0,5 -1,1 -1,2 -1,3l0 33 4 0 0 6 -23 0 0 -6 3 0 0 -31 -3 1 0 -5 19 -6zm-6 -14c2,0 4,0 5,1 2,1 2,3 2,4 0,2 -1,4 -3,6 -2,1 -5,2 -8,2 -2,0 -4,0 -5,-1 -1,-1 -1,-3 -1,-4 0,-2 1,-4 3,-6 2,-1 4,-2 7,-2zm39 14l1 0 -1 8c3,-3 6,-4 9,-6 3,-1 5,-2 8,-2 4,0 7,1 9,4 3,2 4,6 4,10l0 27 3 0 0 6 -23 0 0 -6 3 0 0 -24c0,-2 0,-3 -1,-4 -1,-1 -2,-2 -4,-2 -1,0 -2,0 -4,1 -1,1 -3,2 -4,3l0 26 3 0 0 6 -23 0 0 -6 4 0 0 -31 -4 1 0 -5 20 -6zm55 12c0,5 1,9 3,13 2,4 4,6 7,6 1,0 2,-1 3,-2 1,-1 1,-3 1,-5 0,-5 -1,-9 -3,-13 -1,-3 -4,-5 -6,-5 -2,0 -3,0 -3,1 -1,1 -2,3 -2,5zm8 36c-1,1 -1,3 -2,3 0,1 0,2 0,4 0,1 0,2 1,3 1,1 1,2 3,2 1,0 2,-1 2,-1 1,-1 1,-2 1,-3 0,-2 0,-3 -1,-4 -1,-2 -3,-3 -4,-4zm-24 -7c4,-1 7,-2 10,-2 3,-1 5,-2 7,-4 -5,-1 -9,-3 -12,-6 -2,-3 -4,-6 -4,-11 0,-5 2,-9 7,-13 4,-3 9,-5 15,-5 2,0 4,0 5,0 1,1 3,1 4,1 1,-3 2,-5 3,-7 2,-1 3,-1 6,-1 0,0 1,0 1,0 1,0 2,0 2,0l-2 9c-1,-1 -1,-1 -2,-1 0,0 -1,0 -1,0 0,0 -1,0 -1,0 -1,0 -1,1 -1,1 0,0 2,2 4,5 3,3 5,7 5,11 0,5 -2,9 -6,13 -4,3 -10,6 -19,8 8,1 14,2 18,4 3,2 5,5 5,9 0,3 -2,6 -6,9 -4,2 -8,3 -14,3 -4,0 -8,0 -11,-2 -2,-2 -4,-4 -4,-6 0,-3 1,-4 2,-6 2,-1 4,-2 7,-3 -2,-1 -3,-1 -4,-1 -1,0 -2,0 -3,0 -1,0 -2,0 -2,0 -1,0 -2,0 -3,1l-6 -6zm94 -26c-1,2 -2,3 -3,4 0,1 -1,3 -1,4 0,4 1,7 4,10 2,3 5,4 9,4 1,0 2,0 3,0 1,-1 2,-1 2,-2 -2,-2 -4,-5 -7,-8 -2,-4 -5,-7 -7,-12zm12 -8c2,2 3,5 5,8 3,3 5,7 8,10 1,-1 1,-2 1,-3 1,-2 1,-3 1,-4 0,-2 0,-3 -1,-4 -1,-1 -2,-1 -3,-2l0 -6 19 0 0 7 -6 0c-1,3 -1,6 -2,9 -1,3 -2,6 -4,9 2,2 4,4 6,5 2,1 4,2 6,2 1,0 2,-1 2,-1 1,0 2,-1 2,-1l3 3c-2,3 -4,5 -7,7 -2,2 -5,2 -7,2 -3,0 -5,0 -7,-1 -2,-1 -5,-3 -7,-5 -3,2 -6,3 -9,5 -3,1 -7,1 -10,1 -6,0 -12,-1 -16,-5 -4,-4 -6,-8 -6,-14 0,-4 1,-8 4,-11 2,-3 6,-7 12,-10 -1,-1 -2,-3 -3,-5 0,-1 0,-3 0,-5 0,-4 1,-8 5,-11 4,-3 9,-4 14,-4 5,0 9,1 12,2 3,2 5,5 5,8 0,3 -2,6 -4,8 -3,2 -7,4 -13,6zm-3 -5c2,-1 4,-3 4,-4 1,-2 2,-3 2,-5 0,-1 -1,-3 -1,-3 -1,-1 -2,-2 -3,-2 -2,0 -3,1 -4,2 0,1 -1,2 -1,4 0,1 0,2 1,3 0,1 1,3 2,5z"/>
    <path class="fil2" d="M27 327l6 0 1 3 36 0 0 -3 7 0 1 20 -6 0c-1,-3 -2,-5 -3,-7 -2,-1 -4,-2 -6,-2l-2 0 0 48 6 0 0 7 -30 0 0 -7 5 0 0 -48 -1 0c-3,0 -5,1 -6,2 -2,2 -3,4 -3,7l-6 0 1 -20zm83 42c-1,0 -1,0 -2,-1 0,0 0,0 0,0 -3,0 -5,1 -6,3 -2,1 -3,3 -3,6 0,2 1,4 2,6 1,1 2,1 4,1 1,0 3,0 4,-1 1,-1 1,-3 1,-5l0 -9zm-16 -25l5 2 -1 2c2,0 4,-1 6,-1 2,-1 4,-1 6,-1 5,0 9,1 12,4 3,3 5,6 5,11l0 26 3 0 0 6 -19 0 -1 -4c-2,1 -4,3 -6,4 -2,1 -5,1 -7,1 -4,0 -8,-1 -10,-4 -3,-2 -4,-6 -4,-10 0,-6 2,-10 6,-13 3,-3 9,-4 17,-4 1,0 1,0 2,0 0,0 1,0 2,0l0 -2c0,-2 0,-3 -2,-4 -1,-1 -2,-1 -4,-1 -2,0 -4,0 -5,1 -2,1 -4,3 -5,5l-6 -3 6 -15zm44 3l26 0 0 6 -4 0 5 10 7 -10 -3 0 0 -6 13 0 0 6 -2 0 -11 16 11 18 3 0 0 6 -26 0 0 -6 4 0 -7 -12 -8 12 4 0 0 6 -15 0 0 -6 3 0 13 -18 -9 -16 -3 0 -1 -6zm121 -12l3 -3 4 6 -20 16 -3 -5c0,0 1,-1 1,-2 1,-1 1,-2 1,-3 0,-2 -1,-3 -2,-5 -1,-1 -2,-2 -4,-2 -3,0 -5,2 -6,4 -2,3 -3,7 -3,11 0,8 2,14 6,20 3,5 8,8 13,8 3,0 6,-1 8,-2 2,-1 5,-3 7,-5l5 4c-4,6 -8,10 -13,13 -4,3 -9,4 -15,4 -8,0 -15,-3 -20,-8 -6,-6 -8,-13 -8,-22 0,-5 0,-9 2,-13 1,-4 3,-7 6,-11 3,-4 7,-7 11,-9 4,-2 8,-3 12,-3 3,0 6,1 9,2 2,1 4,3 6,5zm47 41c0,-6 -2,-12 -4,-16 -3,-5 -5,-7 -8,-7 -2,0 -3,1 -4,3 -1,2 -2,4 -2,8 0,6 1,12 4,16 2,5 5,7 8,7 1,0 3,-1 4,-3 1,-2 2,-4 2,-8zm-9 -30c7,0 13,2 18,7 5,4 8,10 8,17 0,7 -3,13 -8,17 -5,5 -11,7 -18,7 -8,0 -14,-2 -19,-7 -5,-4 -7,-10 -7,-17 0,-7 2,-13 7,-17 5,-5 11,-7 19,-7zm53 0l0 0 0 8c3,-3 6,-5 9,-6 3,-1 5,-2 8,-2 4,0 7,1 9,4 3,2 4,6 4,10l0 27 3 0 0 6 -23 0 0 -6 3 0 0 -24c0,-2 0,-4 -1,-5 -1,-1 -2,-1 -4,-1 -1,0 -3,0 -4,1 -1,1 -3,1 -4,3l0 26 3 0 0 6 -23 0 0 -6 3 0 0 -31 -3 1 0 -6 20 -5zm75 5l-7 11c-2,-3 -5,-6 -7,-7 -2,-2 -4,-2 -5,-2 -1,0 -2,0 -2,0 -1,1 -1,2 -1,2 0,1 1,2 1,3 1,1 4,2 7,4 6,3 11,6 13,8 1,2 2,5 2,8 0,4 -2,8 -5,11 -4,4 -9,5 -15,5 -3,0 -6,0 -10,-1 -3,-2 -5,-3 -8,-5l7 -12c4,3 7,6 9,8 3,2 5,3 7,3 1,0 2,0 2,-1 1,0 1,-1 1,-2 0,-2 -3,-4 -8,-7 0,0 0,0 0,0 -1,0 -1,0 -2,-1 -8,-4 -12,-9 -12,-15 0,-4 1,-8 5,-11 3,-3 7,-4 12,-4 3,0 6,0 8,1 3,1 6,2 8,4zm27 -5l1 0 0 31c0,2 0,4 1,5 1,1 2,1 3,1 2,0 3,0 4,-1 1,0 2,-1 3,-2l0 -24 -3 1 0 -6 19 -5 1 0 0 41 3 0 0 6 -19 0 -2 -6c-2,3 -5,4 -7,5 -2,2 -5,2 -7,2 -4,0 -7,-1 -9,-3 -3,-3 -4,-6 -4,-11l0 -24 -3 1 0 -6 19 -5zm65 -17l0 6 -4 1 0 51 3 0 0 6 -23 0 0 -6 4 0 0 -46 -4 1 0 -6 24 -7zm24 7l5 1 0 11 8 0 -1 5c0,1 -1,2 -1,2 0,0 0,0 -1,0l-5 0 0 24c0,2 0,4 1,4 0,1 1,2 3,2 0,0 1,0 1,0 1,-1 2,-1 2,-1l3 3c-2,2 -5,4 -7,5 -3,2 -5,2 -8,2 -4,0 -7,-1 -9,-3 -2,-2 -3,-5 -3,-10l0 -26 -4 0 0 -5c4,-1 7,-3 10,-6 3,-2 5,-5 6,-8zm45 33c0,0 -1,0 -1,-1 -1,0 -1,0 -1,0 -3,0 -5,1 -6,3 -2,1 -2,3 -2,6 0,2 0,4 1,6 1,1 2,1 4,1 2,0 3,0 4,-1 1,-1 1,-3 1,-5l0 -9zm-15 -25l5 2 -1 2c2,0 3,-1 5,-1 2,-1 4,-1 7,-1 5,0 9,1 11,4 3,3 5,6 5,11l0 26 3 0 0 6 -18 0 -2 -4c-2,1 -4,3 -6,4 -2,1 -4,1 -6,1 -5,0 -8,-1 -11,-4 -3,-2 -4,-6 -4,-10 0,-6 2,-10 6,-13 4,-3 10,-4 17,-4 1,0 1,0 2,0 1,0 1,0 2,0l0 -2c0,-2 0,-3 -1,-4 -1,-1 -3,-1 -5,-1 -1,0 -3,0 -5,1 -2,1 -3,3 -5,5l-5 -3 6 -15zm64 2l1 0 -1 8c4,-3 7,-5 9,-6 3,-1 6,-2 8,-2 4,0 7,1 10,4 2,2 3,6 3,10l0 27 3 0 0 6 -23 0 0 -6 3 0 0 -24c0,-2 0,-4 -1,-5 -1,-1 -2,-1 -4,-1 -1,0 -2,0 -4,1 -1,1 -2,1 -4,3l0 26 4 0 0 6 -23 0 0 -6 3 0 0 -31 -3 1 0 -6 19 -5zm82 10l-13 12c-1,-4 -2,-8 -4,-10 -2,-2 -3,-4 -5,-4 -2,0 -3,1 -4,2 -1,2 -1,3 -1,6 0,5 1,10 4,13 2,4 5,6 9,6 2,0 4,-1 5,-2 2,-1 4,-2 5,-4l4 3c-2,5 -5,9 -9,12 -4,3 -8,4 -13,4 -5,0 -10,-2 -14,-6 -4,-4 -6,-9 -6,-15 0,-8 3,-14 8,-19 5,-5 11,-8 17,-8 4,0 7,1 10,2 2,2 5,4 7,8zm40 3c0,0 0,0 -1,0 0,0 0,0 -1,0 -1,0 -2,0 -3,-1 -2,0 -3,-1 -4,-1 -1,0 -2,1 -2,2 -1,1 -2,2 -3,4l6 13 8 -17zm-21 -13c1,2 1,3 2,5 1,2 2,5 3,8 3,-5 5,-8 7,-10 1,-2 3,-2 6,-2 1,0 3,0 5,0 2,1 3,1 4,1 1,0 2,0 3,0 0,0 1,-1 2,-1l2 2c-1,1 -1,2 -2,3 -1,2 -2,4 -3,6l-17 37c-3,5 -5,9 -8,12 -3,2 -6,3 -9,3 -1,0 -3,0 -4,0 -1,-1 -2,-1 -3,-1l2 -13c2,1 4,2 5,2 1,1 2,1 3,1 1,0 3,-1 4,-1 1,-1 2,-2 2,-3l1 -3 -17 -33 -3 1 -2 -4 17 -10z"/>
    <path class="fil3" d="M152 462l0 -26 5 0 0 11 20 0 0 -11 4 0 0 26 -4 0 0 -12 -20 0 0 12 -5 0zm41 0l0 -21 21 0 0 3 -17 0 0 5 10 0 0 3 -10 0 0 7 17 0 0 3 -21 0zm28 0l0 -21 4 0 0 18 17 0 0 3 -21 0zm43 -18l-12 0 0 7 12 0c1,0 1,-1 2,-1 0,0 0,-1 0,-1l0 -3c0,-1 0,-1 0,-2 -1,0 -1,0 -2,0zm-16 18l0 -21 18 0c1,0 2,0 3,1 1,0 1,1 1,3l0 5c0,1 0,2 -1,3 -1,0 -2,1 -3,1l-14 0 0 8 -4 0zm58 0l0 -11 -13 -15 5 0 11 12 9 -12 5 0 -13 15 0 11 -4 0zm27 -3l18 0 0 -15 -18 0 0 15zm-4 -13c0,-2 1,-3 1,-4 1,-1 2,-1 4,-1l16 0c2,0 3,0 4,1 0,1 1,2 1,4l0 11c0,2 -1,3 -1,4 -1,0 -2,1 -4,1l-16 0c-2,0 -3,-1 -4,-1 0,-1 -1,-2 -1,-4l0 -11zm39 -5l0 18 15 0 0 -18 4 0 0 16c0,2 0,3 -1,4 -1,0 -2,1 -4,1l-13 0c-2,0 -3,-1 -4,-1 -1,-1 -1,-2 -1,-4l0 -16 4 0zm58 3l0 18 -4 0 0 -18 -10 0 0 -3 24 0 0 3 -10 0zm19 15l18 0 0 -15 -18 0 0 15zm-4 -13c0,-2 0,-3 1,-4 1,-1 2,-1 4,-1l15 0c2,0 4,0 4,1 1,1 1,2 1,4l0 11c0,2 0,3 -1,4 0,0 -2,1 -4,1l-15 0c-2,0 -3,-1 -4,-1 -1,-1 -1,-2 -1,-4l0 -11zm79 -6l-20 0 0 18 20 0 0 -7 -10 0 0 -3 14 0 0 8c0,2 0,4 -1,5 -1,0 -2,1 -5,1l-16 0c-3,0 -4,-1 -5,-1 -1,-1 -1,-3 -1,-5l0 -14c0,-2 0,-4 1,-4 1,-1 2,-2 5,-2l16 0c3,0 4,1 5,1 1,1 1,3 1,5l0 1 -4 0 0 -3zm30 4l-11 0 0 7 11 0c1,0 1,0 2,-1 0,0 0,-1 0,-1l0 -3c0,-1 0,-1 0,-2 -1,0 -1,0 -2,0zm-15 18l0 -21 17 0c1,0 2,0 3,1 1,0 1,1 1,3l0 5c0,1 0,2 -1,3 -1,0 -2,1 -3,1l-3 0 9 8 -5 0 -9 -8 -5 0 0 8 -4 0zm34 -3l17 0 0 -15 -17 0 0 15zm-4 -13c0,-2 0,-3 1,-4 0,-1 2,-1 4,-1l15 0c2,0 3,0 4,1 1,1 1,2 1,4l0 11c0,2 0,3 -1,4 -1,0 -2,1 -4,1l-15 0c-2,0 -4,-1 -4,-1 -1,-1 -1,-2 -1,-4l0 -11zm39 16l-8 -21 4 0 6 16 6 -16 2 0 6 16 6 -16 4 0 -8 21 -3 0 -6 -16 -6 16 -3 0z"/>
    <line class="fil4 str0" x1="645" y1="450" x2="751" y2= "450" />
    <line class="fil4 str0" x1="22" y1="450" x2="129" y2= "450" />
   </g>
  </g>
 </g>
</svg>
