<?xml version="1.0" encoding="UTF-8"?>
<!DOCTYPE svg PUBLIC "-//W3C//DTD SVG 1.1//EN" "http://www.w3.org/Graphics/SVG/1.1/DTD/svg11.dtd">
<!-- Creator: CorelDRAW X7 -->
<svg xmlns="http://www.w3.org/2000/svg" xml:space="preserve" width="500px" height="125px" version="1.1" style="shape-rendering:geometricPrecision; text-rendering:geometricPrecision; image-rendering:optimizeQuality; fill-rule:evenodd; clip-rule:evenodd"
viewBox="0 0 500 125"
 xmlns:xlink="http://www.w3.org/1999/xlink">
 <defs>
  <style type="text/css">
   <![CDATA[
    .str0 {stroke:#9D9E9E;stroke-width:1.82259}
    .fil4 {fill:none;fill-rule:nonzero}
    .fil3 {fill:#898989;fill-rule:nonzero}
    .fil2 {fill:#2B2A29;fill-rule:nonzero}
    .fil0 {fill:#009846;fill-rule:nonzero}
    .fil1 {fill:#264796;fill-rule:nonzero}
   ]]>
  </style>
 </defs>
 <g id="Layer_x0020_1">
  <metadata id="CorelCorpID_0Corel-Layer"/>
  <path class="fil0" d="M102 53l21 -31c2,-3 3,-5 3,-6 0,-1 0,-2 -2,-2 -1,-1 -3,-1 -5,-1l-3 0 0 -1 28 0 0 1c-5,0 -8,1 -10,2 -2,1 -5,4 -8,8l-10 15 31 52 7 0 0 1 -38 0 0 -1 7 0 -21 -37 0 37 0 -37z"/>
  <polygon class="fil1" points="79,12 97,90 104,90 104,91 65,91 65,90 74,90 60,12 "/>
  <path class="fil1" d="M91 54c-16,-2 -46,21 -46,31 0,3 3,5 7,5l2 0 0 1 -21 0 0 -1 1 0c3,0 5,0 5,-2 3,-13 28,-37 52,-37l0 3z"/>
  <path class="fil2" d="M201 29l-4 9 7 0 -3 -9zm-2 -7l7 0 8 24 2 0 0 3 -12 0 0 -3 2 0 -1 -4 -9 0 -1 4 2 0 0 3 -8 0 0 -3 2 0 8 -24zm36 11l-6 5c0,-2 -1,-3 -2,-4 0,-1 -1,-2 -2,-2 0,0 -1,1 -1,1 -1,1 -1,1 -1,2 0,3 1,5 2,6 1,2 2,2 4,2 0,0 1,0 2,0 1,-1 2,-1 2,-2l2 1c-1,3 -2,4 -4,5 -2,2 -3,2 -5,2 -3,0 -5,-1 -6,-2 -2,-2 -3,-4 -3,-7 0,-3 1,-6 3,-8 2,-2 5,-3 8,-3 1,0 2,0 4,1 1,1 2,2 3,3zm19 0l-5 5c-1,-2 -1,-3 -2,-4 -1,-1 -1,-2 -2,-2 -1,0 -1,1 -2,1 0,1 0,1 0,2 0,3 0,5 1,6 1,2 3,2 4,2 1,0 2,0 3,0 0,-1 1,-1 2,-2l1 1c-1,3 -2,4 -4,5 -1,2 -3,2 -5,2 -2,0 -4,-1 -6,-2 -2,-2 -2,-4 -2,-7 0,-3 1,-6 3,-8 2,-2 4,-3 7,-3 2,0 3,0 4,1 1,1 2,2 3,3zm17 8c0,-2 -1,-4 -2,-6 -1,-2 -2,-3 -3,-3 -1,0 -2,0 -2,1 0,1 -1,2 -1,3 0,3 1,5 2,7 1,2 2,3 3,3 1,0 2,0 2,-1 1,-1 1,-2 1,-4zm-4 -12c3,0 6,1 8,3 2,2 3,4 3,7 0,3 -1,5 -3,7 -2,2 -5,3 -8,3 -3,0 -6,-1 -8,-3 -2,-2 -3,-4 -3,-7 0,-3 1,-5 3,-7 2,-2 5,-3 8,-3zm22 0l0 0 0 13c0,1 0,1 1,2 0,0 1,0 1,0 1,0 1,0 2,0 0,0 1,0 1,-1l0 -10 -1 0 0 -2 8 -2 0 0 0 17 1 0 0 3 -7 0 -1 -3c-1,1 -2,2 -3,2 -1,1 -2,1 -3,1 -2,0 -3,0 -4,-1 -1,-1 -2,-3 -2,-5l0 -10 -1 0 0 -2 8 -2zm26 0l0 0 0 3c1,-1 2,-2 4,-2 1,-1 2,-1 3,-1 2,0 3,0 4,1 1,1 1,3 1,5l0 11 2 0 0 3 -10 0 0 -3 1 0 0 -10c0,-1 0,-2 0,-2 -1,0 -1,-1 -2,-1 0,0 -1,1 -1,1 -1,0 -2,0 -2,1l0 11 1 0 0 3 -10 0 0 -3 2 0 0 -13 -2 0 0 -2 9 -2zm24 -5l2 1 0 5 3 0 0 2c0,0 0,0 0,0 0,1 0,1 -1,1l-2 0 0 9c0,1 0,2 0,3 1,0 1,0 2,0 0,0 0,0 0,0 1,0 1,0 1,0l1 1c-1,1 -2,2 -3,2 -1,1 -2,1 -3,1 -2,0 -3,0 -4,-1 -1,-1 -1,-2 -1,-4l0 -11 -2 0 0 -3c2,0 3,-1 4,-2 2,-1 2,-2 3,-4zm17 5l0 0c0,1 0,1 0,2 0,0 0,1 0,1l0 14 1 0 0 3 -10 0 0 -3 2 0 0 -13 -2 0 0 -2 9 -2zm-3 -6c1,0 2,0 2,0 1,1 1,1 1,2 0,1 0,2 -1,2 -1,1 -2,1 -4,1 -1,0 -1,0 -2,0 0,-1 0,-1 0,-2 0,-1 0,-2 1,-2 1,-1 2,-1 3,-1zm16 6l1 0 0 3c1,-1 2,-2 3,-2 1,-1 3,-1 4,-1 1,0 3,0 4,1 1,1 1,3 1,5l0 11 1 0 0 3 -9 0 0 -3 1 0 0 -10c0,-1 0,-2 0,-2 -1,0 -1,-1 -2,-1 -1,0 -1,1 -2,1 0,0 -1,0 -1,1l0 11 1 0 0 3 -10 0 0 -3 2 0 0 -13 -2 0 0 -2 8 -2zm24 5c0,2 0,4 1,5 1,2 2,3 3,3 0,0 1,-1 1,-1 0,-1 1,-1 1,-2 0,-2 -1,-4 -2,-6 0,-1 -1,-2 -2,-2 -1,0 -1,0 -2,1 0,0 0,1 0,2zm3 15c0,1 -1,1 -1,1 0,1 0,1 0,2 0,0 0,1 0,1 1,1 1,1 2,1 0,0 0,0 1,-1 0,0 0,0 0,-1 0,0 0,-1 0,-2 -1,0 -1,-1 -2,-1zm-10 -3c1,0 3,-1 4,-1 1,0 2,-1 3,-1 -2,-1 -4,-2 -5,-3 -1,-1 -2,-3 -2,-5 0,-2 1,-4 3,-5 2,-1 4,-2 7,-2 0,0 1,0 2,0 0,0 1,0 1,0 1,-1 1,-2 2,-3 0,0 1,0 2,0 0,0 0,0 1,0 0,0 0,0 0,0l0 3c-1,0 -1,0 -1,0 0,0 -1,0 -1,0 0,0 0,0 0,0 0,0 0,0 0,1 0,0 0,0 1,2 1,1 2,3 2,4 0,2 -1,4 -2,6 -2,1 -5,2 -8,3 3,1 6,1 7,2 2,1 2,2 2,3 0,2 -1,3 -2,4 -2,1 -4,2 -6,2 -2,0 -3,-1 -5,-1 -1,-1 -1,-2 -1,-3 0,-1 0,-2 1,-2 0,-1 1,-1 2,-2 0,0 -1,0 -1,0 -1,0 -1,0 -1,0 -1,0 -1,0 -2,0 0,0 0,0 -1,0l-2 -2zm39 -11c0,1 -1,1 -1,2 0,0 0,1 0,1 0,2 0,3 1,5 1,1 3,1 4,1 1,0 1,0 1,0 1,0 1,0 2,0 -2,-1 -3,-3 -4,-4 -1,-1 -2,-3 -3,-5zm6 -3c0,1 1,2 2,3 1,1 2,3 3,4 0,0 0,-1 1,-1 0,-1 0,-1 0,-2 0,0 0,-1 -1,-1 0,-1 0,-1 -1,-1l0 -3 8 0 0 3 -3 0c0,1 0,3 0,4 -1,1 -1,2 -2,4 1,1 2,1 3,2 0,0 1,1 2,1 0,0 1,-1 1,-1 0,0 1,0 1,0l1 1c-1,1 -2,2 -3,3 -1,1 -2,1 -3,1 -1,0 -2,0 -3,-1 -1,0 -2,-1 -3,-2 -1,1 -2,2 -4,2 -1,1 -2,1 -4,1 -2,0 -5,-1 -6,-2 -2,-2 -3,-4 -3,-6 0,-2 1,-3 2,-5 1,-1 2,-3 5,-4 -1,-1 -1,-1 -1,-2 -1,-1 -1,-1 -1,-2 0,-2 1,-4 3,-5 1,-1 3,-2 6,-2 2,0 3,1 5,2 1,0 1,1 1,3 0,1 0,2 -1,3 -1,1 -3,2 -5,3zm-2 -3c1,0 2,-1 2,-1 0,-1 1,-1 1,-2 0,-1 0,-1 -1,-2 0,0 0,0 -1,0 -1,0 -1,0 -1,0 -1,1 -1,1 -1,2 0,0 0,1 0,1 0,1 1,2 1,2z"/>
  <path class="fil2" d="M164 62l2 0 0 1 16 0 0 -1 2 0 1 8 -3 0c0,-1 0,-2 -1,-3 0,0 -1,-1 -2,-1l-1 0 0 20 2 0 0 3 -12 0 0 -3 2 0 0 -20 -1 0c-1,0 -2,1 -2,1 -1,1 -1,2 -1,3l-3 0 1 -8zm35 17c-1,0 -1,0 -1,0 0,0 0,0 0,0 -2,0 -2,0 -3,1 -1,1 -1,2 -1,3 0,1 0,1 1,2 0,0 1,1 1,1 1,0 1,-1 2,-1 0,0 1,-1 1,-2l0 -4zm-7 -10l2 0 0 2c0,-1 1,-1 2,-1 1,0 2,0 3,0 2,0 3,0 5,1 1,1 1,3 1,5l0 11 2 0 0 2 -8 0 0 -2c-1,1 -2,2 -3,2 -1,1 -2,1 -3,1 -2,0 -3,-1 -4,-2 -1,-1 -2,-2 -2,-4 0,-3 1,-4 2,-6 2,-1 5,-1 8,-1 0,0 0,0 1,0 0,0 0,0 1,0l0 -1c0,-1 -1,-1 -1,-2 -1,0 -1,0 -2,0 -1,0 -2,0 -2,0 -1,1 -2,1 -2,2l-3 -1 3 -6zm18 1l11 0 0 3 -1 0 2 4 2 -4 -1 0 0 -3 6 0 0 3 -1 0 -5 6 5 8 1 0 0 2 -11 0 0 -2 2 0 -3 -5 -3 5 1 0 0 2 -6 0 0 -2 1 0 6 -8 -4 -6 -1 0 -1 -3zm51 -5l2 -1 1 2 -8 7 -2 -2c1,0 1,-1 1,-1 0,0 0,-1 0,-1 0,-1 0,-2 0,-2 -1,-1 -2,-1 -2,-1 -1,0 -2,1 -3,2 -1,1 -1,2 -1,4 0,3 1,6 2,8 2,3 4,4 6,4 1,0 2,0 3,-1 1,0 2,-1 3,-2l2 2c-1,2 -3,4 -5,5 -2,1 -4,2 -6,2 -4,0 -7,-1 -9,-4 -2,-2 -3,-5 -3,-9 0,-2 0,-4 1,-5 0,-2 1,-4 2,-5 2,-1 3,-3 5,-4 1,0 3,-1 5,-1 1,0 2,0 4,1 1,0 2,1 2,2zm20 17c0,-2 -1,-5 -2,-7 -1,-2 -2,-3 -3,-3 -1,0 -1,1 -2,2 0,0 -1,2 -1,3 0,3 1,5 2,7 1,2 2,3 3,3 1,0 2,0 2,-1 1,-1 1,-2 1,-4zm-4 -12c3,0 6,0 8,2 2,2 3,5 3,8 0,3 -1,5 -3,7 -2,2 -5,3 -8,3 -3,0 -6,-1 -8,-3 -2,-2 -3,-4 -3,-7 0,-3 1,-6 3,-8 2,-2 5,-2 8,-2zm22 0l1 0 0 3c1,-1 2,-2 3,-3 1,0 3,0 4,0 1,0 3,0 4,1 1,1 1,3 1,4l0 12 1 0 0 2 -9 0 0 -2 1 0 0 -10c0,-1 0,-2 0,-2 -1,-1 -1,-1 -2,-1 -1,0 -1,0 -2,1 0,0 -1,0 -1,1l0 11 1 0 0 2 -10 0 0 -2 2 0 0 -13 -2 0 0 -2 8 -2zm32 2l-3 4c-1,-1 -2,-2 -3,-3 0,0 -1,-1 -2,-1 0,0 -1,0 -1,1 0,0 0,0 0,0 0,1 0,1 0,2 1,0 2,1 3,1 3,2 5,3 6,4 0,1 1,2 1,3 0,2 -1,3 -3,5 -1,1 -3,2 -6,2 -1,0 -3,0 -4,-1 -1,0 -2,-1 -4,-2l4 -5c1,2 2,3 3,4 1,0 2,1 3,1 1,0 1,0 1,-1 0,0 0,0 0,-1 0,0 -1,-1 -3,-2 0,0 0,0 0,0 0,0 0,-1 -1,-1 -3,-2 -5,-4 -5,-6 0,-2 1,-3 2,-5 2,-1 3,-1 6,-1 1,0 2,0 3,0 1,0 2,1 3,2zm12 -2l0 0 0 13c0,1 0,1 0,2 1,0 1,0 2,0 0,0 1,0 1,0 1,0 1,-1 2,-1l0 -10 -2 0 0 -2 8 -2 1 0 0 17 1 0 0 2 -8 0 -1 -2c-1,1 -2,2 -3,2 -1,1 -2,1 -3,1 -1,0 -3,-1 -4,-2 -1,-1 -1,-2 -1,-4l0 -10 -2 0 0 -2 9 -2zm27 -8l0 3 -2 0 0 22 2 0 0 2 -10 0 0 -2 1 0 0 -20 -1 1 0 -3 10 -3zm10 3l2 1 0 4 3 0 0 3c0,0 0,0 0,0 0,0 0,0 -1,0l-2 0 0 10c0,1 0,2 0,2 1,1 1,1 2,1 0,0 0,0 0,0 1,0 1,0 1,-1l1 2c-1,1 -2,2 -3,2 -1,1 -2,1 -3,1 -2,0 -3,-1 -4,-1 -1,-1 -1,-3 -1,-5l0 -11 -2 0 0 -2c2,0 3,-1 4,-2 2,-1 2,-2 3,-4zm19 14c0,0 0,0 -1,0 0,0 0,0 0,0 -1,0 -2,0 -2,1 -1,1 -1,2 -1,3 0,1 0,1 0,2 1,0 1,1 2,1 0,0 1,-1 1,-1 1,0 1,-1 1,-2l0 -4zm-7 -10l3 0 -1 2c1,-1 2,-1 3,-1 0,0 1,0 2,0 2,0 4,0 5,1 1,1 2,3 2,5l0 11 1 0 0 2 -7 0 -1 -2c-1,1 -2,2 -3,2 -1,1 -1,1 -2,1 -2,0 -4,-1 -5,-2 -1,-1 -2,-2 -2,-4 0,-3 1,-4 3,-6 2,-1 4,-1 7,-1 1,0 1,0 1,0 0,0 1,0 1,0l0 -1c0,-1 0,-1 -1,-2 0,0 -1,0 -1,0 -1,0 -2,0 -3,0 -1,1 -1,1 -2,2l-2 -1 2 -6zm28 1l0 0 0 3c1,-1 2,-2 3,-3 2,0 3,0 4,0 1,0 3,0 4,1 1,1 1,3 1,4l0 12 2 0 0 2 -10 0 0 -2 1 0 0 -10c0,-1 0,-2 0,-2 -1,-1 -1,-1 -2,-1 0,0 -1,0 -2,1 0,0 -1,0 -1,1l0 11 1 0 0 2 -10 0 0 -2 2 0 0 -13 -2 0 0 -2 9 -2zm34 4l-5 5c-1,-2 -1,-3 -2,-4 -1,-1 -2,-2 -2,-2 -1,0 -1,0 -2,1 0,0 0,1 0,2 0,3 0,4 1,6 1,1 2,2 4,2 1,0 2,0 2,0 1,-1 2,-1 2,-2l2 1c-1,2 -2,4 -4,5 -1,1 -3,2 -5,2 -2,0 -5,-1 -6,-3 -2,-1 -2,-4 -2,-6 0,-3 1,-6 3,-8 2,-2 4,-3 7,-3 1,0 3,0 4,1 1,0 2,1 3,3zm17 1c0,0 0,0 0,0 -1,0 -1,0 -1,0 0,0 -1,0 -1,0 -1,-1 -1,-1 -2,-1 0,0 -1,1 -1,1 0,0 -1,1 -1,2l3 5 3 -7zm-9 -5c0,0 1,1 1,2 0,1 1,2 1,3 1,-2 2,-4 3,-4 1,-1 2,-1 3,-1 0,0 1,0 2,0 1,0 1,0 2,0 0,0 0,0 1,0 0,0 0,0 0,0l1 1c0,0 0,1 -1,1 0,1 0,2 -1,2l-7 16c-1,2 -2,4 -3,5 -1,1 -3,2 -4,2 -1,0 -1,0 -2,-1 0,0 -1,0 -1,0l1 -5c1,0 1,0 2,0 0,1 1,1 1,1 1,0 1,0 2,-1 0,0 1,0 1,-1l0 -1 -7 -14 -1 0 -1 -1 7 -4z"/>
  <path class="fil3" d="M157 117l0 -11 2 0 0 5 8 0 0 -5 2 0 0 11 -2 0 0 -5 -8 0 0 5 -2 0zm17 0l0 -9 9 0 0 1 -7 0 0 3 4 0 0 1 -4 0 0 3 7 0 0 1 -9 0zm12 0l0 -9 2 0 0 8 7 0 0 1 -9 0zm18 -8l-5 0 0 3 5 0c0,0 1,0 1,0 0,0 0,0 0,-1l0 -1c0,0 0,0 0,0 0,-1 -1,-1 -1,-1zm-7 8l0 -9 8 0c0,0 1,0 1,1 1,0 1,0 1,1l0 2c0,0 0,1 -1,1 0,0 -1,1 -1,1l-6 0 0 3 -2 0zm25 0l0 -5 -6 -6 3 0 4 5 4 -5 2 0 -5 6 0 5 -2 0zm11 -1l8 0 0 -7 -8 0 0 7zm-1 -6c0,-1 0,-1 0,-1 0,-1 1,-1 2,-1l6 0c1,0 1,0 2,1 0,0 0,0 0,1l0 5c0,1 0,1 0,2 -1,0 -1,0 -2,0l-6 0c-1,0 -2,0 -2,0 0,-1 0,-1 0,-2l0 -5zm16 -2l0 8 6 0 0 -8 2 0 0 7c0,1 0,1 -1,2 0,0 0,0 -1,0l-6 0c-1,0 -1,0 -1,0 -1,-1 -1,-1 -1,-2l0 -7 2 0zm24 1l0 8 -2 0 0 -8 -4 0 0 -1 10 0 0 1 -4 0zm8 7l8 0 0 -7 -8 0 0 7zm-1 -6c0,-1 0,-1 0,-1 0,-1 1,-1 2,-1l6 0c1,0 2,0 2,1 0,0 0,0 0,1l0 5c0,1 0,1 0,2 0,0 -1,0 -2,0l-6 0c-1,0 -2,0 -2,0 0,-1 0,-1 0,-2l0 -5zm33 -2l-9 0 0 7 9 0 0 -3 -5 0 0 -1 7 0 0 3c0,1 -1,2 -1,2 0,1 -1,1 -2,1l-7 0c-1,0 -2,0 -2,-1 0,0 0,-1 0,-2l0 -5c0,-1 0,-2 0,-2 0,-1 1,-1 2,-1l7 0c1,0 2,0 2,1 0,0 1,1 1,2l0 0 -2 0 0 -1zm12 1l-4 0 0 3 4 0c1,0 1,0 1,0 0,0 0,0 0,-1l0 -1c0,0 0,0 0,0 0,-1 0,-1 -1,-1zm-6 8l0 -9 7 0c1,0 1,0 2,1 0,0 0,0 0,1l0 2c0,0 0,1 0,1 -1,0 -1,1 -2,1l-1 0 4 3 -2 0 -4 -3 -2 0 0 3 -2 0zm14 -1l8 0 0 -7 -8 0 0 7zm-1 -6c0,-1 0,-1 0,-1 0,-1 1,-1 2,-1l6 0c1,0 2,0 2,1 0,0 0,0 0,1l0 5c0,1 0,1 0,2 0,0 -1,0 -2,0l-6 0c-1,0 -2,0 -2,0 0,-1 0,-1 0,-2l0 -5zm16 7l-3 -9 1 0 3 7 2 -7 2 0 2 7 3 -7 1 0 -3 9 -2 0 -2 -7 -3 7 -1 0z"/>
  <line class="fil4 str0" x1="364" y1="112" x2="409" y2= "112" />
  <line class="fil4 str0" x1="102" y1="112" x2="147" y2= "112" />
 </g>
</svg>
