<?xml version="1.0" encoding="UTF-8"?>
<!DOCTYPE svg PUBLIC "-//W3C//DTD SVG 1.1//EN" "http://www.w3.org/Graphics/SVG/1.1/DTD/svg11.dtd">
<!-- Creator: CorelDRAW X7 -->
<svg xmlns="http://www.w3.org/2000/svg" xml:space="preserve" width="250px" height="250px" version="1.1" style="shape-rendering:geometricPrecision; text-rendering:geometricPrecision; image-rendering:optimizeQuality; fill-rule:evenodd; clip-rule:evenodd"
viewBox="0 0 250 250"
 xmlns:xlink="http://www.w3.org/1999/xlink">
 <defs>
  <style type="text/css">
   <![CDATA[
    .str0 {stroke:#9D9E9E;stroke-width:1.45808}
    .fil4 {fill:none;fill-rule:nonzero}
    .fil3 {fill:#898989;fill-rule:nonzero}
    .fil2 {fill:#2B2A29;fill-rule:nonzero}
    .fil0 {fill:#009846;fill-rule:nonzero}
    .fil1 {fill:#264796;fill-rule:nonzero}
   ]]>
  </style>
 </defs>
<symbol id="Symbol1" viewBox="-10 46 269 157">
 <path class="fil0" d="M131 81l18 -26c1,-2 2,-4 2,-5 0,-1 0,-1 -1,-2 -2,0 -3,-1 -5,-1l-2 0 0 -1 23 0 0 1c-4,1 -7,1 -9,2 -1,1 -3,3 -6,7l-8 12 25 45 7 0 0 1 -32 0 0 -1 6 0 -18 -32 0 32 0 -32z"/>
 <polygon class="fil1" points="111,46 126,113 132,113 132,114 99,114 99,113 107,113 95,46 "/>
 <path class="fil1" d="M121 82c-13,-2 -39,19 -39,27 0,3 2,4 6,4l1 0 0 1 -18 0 0 -1 1 0c2,0 5,0 5,-1 2,-11 24,-32 44,-33l0 3z"/>
 <path class="fil2" d="M24 127l-3 8 6 0 -3 -8zm-2 -6l7 0 7 20 1 0 0 3 -10 0 0 -3 1 0 0 -3 -8 0 -1 3 2 0 0 3 -7 0 0 -3 2 0 6 -20zm31 10l-5 4c0,-2 -1,-3 -1,-4 -1,0 -1,-1 -2,-1 -1,0 -1,0 -1,1 -1,0 -1,1 -1,2 0,2 1,3 1,5 1,1 2,2 4,2 0,0 1,-1 2,-1 0,0 1,-1 2,-1l1 1c-1,2 -2,3 -3,4 -2,1 -3,1 -5,1 -2,0 -4,0 -5,-2 -1,-1 -2,-3 -2,-5 0,-3 1,-5 3,-7 1,-2 4,-3 6,-3 1,0 2,0 3,1 1,1 2,1 3,3zm17 0l-5 4c0,-2 -1,-3 -2,-4 0,0 -1,-1 -1,-1 -1,0 -1,0 -2,1 0,0 0,1 0,2 0,2 0,3 1,5 1,1 2,2 3,2 1,0 2,-1 3,-1 0,0 1,-1 1,-1l2 1c-1,2 -2,3 -4,4 -1,1 -2,1 -4,1 -2,0 -4,0 -5,-2 -2,-1 -2,-3 -2,-5 0,-3 1,-5 2,-7 2,-2 4,-3 7,-3 1,0 2,0 3,1 1,1 2,1 3,3zm14 7c0,-2 -1,-4 -2,-6 0,-2 -1,-2 -2,-2 -1,0 -2,0 -2,1 0,0 -1,1 -1,2 0,3 1,5 2,6 1,2 2,3 3,3 0,0 1,0 1,-1 1,-1 1,-2 1,-3zm-3 -11c2,0 5,1 6,3 2,1 3,3 3,6 0,2 -1,4 -3,6 -1,2 -4,2 -6,2 -3,0 -5,0 -7,-2 -2,-2 -3,-4 -3,-6 0,-3 1,-5 3,-6 2,-2 4,-3 7,-3zm18 0l1 0 0 11c0,1 0,2 0,2 0,0 1,1 1,1 1,0 1,-1 2,-1 0,0 0,0 1,-1l0 -8 -1 0 0 -2 6 -2 1 0 0 15 1 0 0 2 -7 0 -1 -2c0,1 -1,1 -2,2 -1,0 -2,0 -3,0 -1,0 -2,0 -3,-1 -1,-1 -1,-2 -1,-4l0 -8 -2 0 0 -2 7 -2zm22 0l1 0 -1 3c2,-1 3,-2 4,-2 1,-1 2,-1 2,-1 2,0 3,1 4,1 1,1 1,3 1,4l0 10 1 0 0 2 -8 0 0 -2 1 0 0 -9c0,-1 0,-1 0,-1 -1,-1 -1,-1 -2,-1 0,0 -1,0 -1,0 -1,1 -1,1 -2,1l0 10 2 0 0 2 -9 0 0 -2 2 0 0 -11 -2 0 0 -2 7 -2zm21 -4l2 1 0 4 3 0 -1 2c0,0 0,0 0,0 0,0 0,0 0,0l-2 0 0 9c0,1 0,1 0,2 0,0 1,0 1,0 0,0 1,0 1,0 0,0 0,0 1,0l0 1c0,1 -1,1 -2,2 -1,0 -2,0 -3,0 -1,0 -3,0 -3,-1 -1,0 -1,-2 -1,-3l0 -10 -2 0 0 -2c2,0 3,-1 4,-1 1,-1 2,-2 2,-4zm14 4l1 0c0,1 0,1 -1,2 0,0 0,1 0,1l0 12 2 0 0 2 -9 0 0 -2 1 0 0 -11 -1 0 0 -2 7 -2zm-2 -5c1,0 2,0 2,0 0,1 1,1 1,2 0,1 -1,1 -1,2 -1,0 -2,1 -3,1 -1,0 -2,0 -2,-1 0,0 -1,-1 -1,-1 0,-1 1,-2 1,-2 1,-1 2,-1 3,-1zm14 5l0 0 0 3c1,-1 2,-2 3,-2 1,-1 2,-1 3,-1 2,0 3,1 4,1 1,1 1,3 1,4l0 10 1 0 0 2 -8 0 0 -2 1 0 0 -9c0,-1 0,-1 0,-1 -1,-1 -1,-1 -2,-1 0,0 -1,0 -1,0 -1,1 -1,1 -2,1l0 10 1 0 0 2 -8 0 0 -2 1 0 0 -11 -1 0 0 -2 7 -2zm20 4c0,2 0,4 1,5 1,1 2,2 2,2 1,0 1,0 2,0 0,-1 0,-1 0,-2 0,-2 0,-4 -1,-5 -1,-1 -1,-2 -2,-2 -1,0 -1,0 -1,1 -1,0 -1,1 -1,1zm3 13c0,1 -1,1 -1,2 0,0 0,0 0,1 0,0 0,1 0,1 1,0 1,0 1,0 1,0 1,0 1,0 1,0 1,0 1,-1 0,0 -1,-1 -1,-1 0,-1 -1,-1 -1,-2zm-9 -2c2,0 3,-1 4,-1 1,0 2,-1 2,-1 -1,-1 -3,-1 -4,-2 -1,-2 -1,-3 -1,-4 0,-2 0,-4 2,-5 1,-1 3,-2 6,-2 0,0 1,0 1,0 1,0 1,0 2,0 0,-1 0,-2 1,-2 0,0 1,-1 2,-1 0,0 0,0 0,0 1,0 1,1 1,1l-1 3c0,0 0,-1 0,-1 0,0 -1,0 -1,0 0,0 0,0 0,0 0,1 0,1 0,1 0,0 0,0 1,2 1,1 2,2 2,4 0,1 -1,3 -2,4 -2,1 -4,2 -7,3 3,0 5,1 6,2 1,0 2,1 2,3 0,1 -1,2 -2,3 -1,1 -3,1 -5,1 -2,0 -3,0 -4,-1 -1,0 -1,-1 -1,-2 0,-1 0,-1 0,-2 1,0 2,-1 3,-1 -1,0 -1,0 -2,0 0,0 0,0 -1,0 0,0 0,0 -1,0 0,0 0,0 -1,0l-2 -2zm34 -9c0,0 -1,0 -1,1 0,0 0,1 0,1 0,2 0,3 1,4 1,1 2,1 3,1 1,0 1,0 1,0 1,0 1,0 1,0 -1,-1 -2,-2 -2,-3 -1,-2 -2,-3 -3,-4zm4 -3c1,0 2,1 2,3 1,1 2,2 3,3 0,0 0,-1 1,-1 0,-1 0,-1 0,-2 0,0 0,0 -1,-1 0,0 0,0 -1,-1l0 -2 7 0 0 3 -2 0c0,1 0,2 -1,3 0,1 0,2 -1,3 1,1 1,2 2,2 1,0 1,1 2,1 0,0 1,-1 1,-1 0,0 0,0 1,0l1 1c-1,1 -2,2 -3,3 -1,0 -2,0 -3,0 0,0 -1,0 -2,0 -1,-1 -2,-1 -2,-2 -1,1 -2,1 -4,2 -1,0 -2,0 -3,0 -3,0 -4,0 -6,-2 -1,-1 -2,-2 -2,-4 0,-2 0,-3 1,-4 1,-2 3,-3 4,-4 0,-1 0,-1 0,-2 -1,0 -1,-1 -1,-2 0,-1 1,-3 2,-4 2,-1 3,-1 6,-1 1,0 3,0 4,1 1,0 1,1 1,3 0,1 0,2 -1,2 -1,1 -2,2 -5,3zm-1 -2c1,-1 2,-1 2,-2 0,0 0,-1 0,-1 0,-1 0,-1 0,-2 0,0 -1,0 -1,0 -1,0 -1,0 -1,0 -1,1 -1,1 -1,2 0,0 0,0 0,1 1,0 1,1 1,2z"/>
 <path class="fil2" d="M-8 155l2 0 1 1 13 0 0 -1 2 0 0 7 -2 0c0,-1 0,-2 -1,-2 0,-1 -1,-1 -2,-1l-1 0 0 17 2 0 0 3 -10 0 0 -3 2 0 0 -17 -1 0c-1,0 -2,0 -2,1 -1,0 -1,1 -1,2l-2 0 0 -7zm30 15c0,0 0,0 -1,0 0,0 0,0 0,0 -1,0 -1,0 -2,1 -1,0 -1,1 -1,2 0,1 0,2 1,2 0,1 0,1 1,1 1,0 1,0 1,-1 1,0 1,-1 1,-1l0 -4zm-6 -9l2 1 0 1c1,0 1,-1 2,-1 1,0 1,0 2,0 2,0 3,0 4,1 1,1 2,3 2,4l0 10 1 0 0 2 -7 0 0 -2c-1,1 -1,1 -2,2 -1,0 -2,0 -3,0 -1,0 -2,0 -3,-1 -1,-1 -2,-2 -2,-4 0,-2 1,-3 2,-4 2,-1 4,-2 7,-2 0,0 0,0 0,0 0,0 1,0 1,0l0 -1c0,0 0,-1 -1,-1 0,0 0,-1 -1,-1 -1,0 -1,1 -2,1 -1,0 -1,1 -2,2l-2 -1 2 -6zm16 1l10 0 0 3 -2 0 2 3 2 -3 -1 0 0 -3 5 0 0 3 -1 0 -4 5 4 7 1 0 0 2 -9 0 0 -2 1 0 -2 -5 -3 5 1 0 0 2 -5 0 0 -2 1 0 5 -7 -4 -5 -1 0 0 -3zm44 -4l1 -1 1 2 -7 6 -1 -2c0,0 0,0 0,-1 0,0 1,0 1,-1 0,0 -1,-1 -1,-1 0,-1 -1,-1 -2,-1 -1,0 -1,0 -2,1 0,1 -1,2 -1,4 0,3 1,5 2,7 2,2 3,3 5,3 1,0 2,0 3,-1 1,0 2,-1 2,-1l2 1c-1,2 -3,4 -4,5 -2,1 -4,1 -6,1 -3,0 -5,-1 -7,-3 -2,-2 -3,-4 -3,-8 0,-1 0,-3 1,-4 0,-2 1,-3 2,-4 1,-1 2,-3 4,-3 1,-1 3,-1 4,-1 1,0 2,0 3,0 1,1 2,1 3,2zm16 15c0,-2 0,-4 -1,-6 -1,-2 -2,-3 -3,-3 0,0 -1,1 -1,1 -1,1 -1,2 -1,3 0,3 1,5 1,6 1,2 2,3 3,3 1,0 1,-1 2,-1 0,-1 0,-2 0,-3zm-3 -11c3,0 5,1 7,2 2,2 3,4 3,7 0,2 -1,4 -3,6 -2,2 -4,2 -7,2 -2,0 -5,0 -6,-2 -2,-2 -3,-4 -3,-6 0,-3 1,-5 3,-7 1,-1 4,-2 6,-2zm19 0l1 0 -1 3c2,-1 3,-2 4,-2 1,-1 2,-1 2,-1 2,0 3,0 4,1 1,1 1,2 1,4l0 10 1 0 0 2 -8 0 0 -2 1 0 0 -9c0,-1 0,-1 0,-2 -1,0 -1,0 -2,0 0,0 -1,0 -1,0 -1,0 -1,1 -2,1l0 10 2 0 0 2 -9 0 0 -2 1 0 0 -11 -1 0 0 -2 7 -2zm27 2l-2 4c-1,-1 -2,-2 -3,-3 0,0 -1,-1 -1,-1 -1,0 -1,0 -1,1 0,0 -1,0 -1,0 0,1 1,1 1,1 0,1 1,1 2,2 3,1 4,2 5,3 1,0 1,1 1,2 0,2 -1,3 -2,5 -2,1 -3,1 -5,1 -2,0 -3,0 -4,0 -1,-1 -2,-1 -3,-2l3 -4c1,1 2,2 3,3 1,0 2,1 2,1 1,0 1,0 1,-1 0,0 0,0 0,0 0,-1 -1,-2 -3,-3 0,0 0,0 0,0 0,0 0,0 0,0 -3,-2 -5,-4 -5,-5 0,-2 1,-3 2,-5 1,-1 3,-1 5,-1 1,0 2,0 3,0 1,1 2,1 2,2zm10 -2l0 0 0 11c0,1 1,1 1,2 0,0 0,0 1,0 0,0 1,0 1,0 1,0 1,0 1,-1l0 -8 -1 0 0 -2 7 -2 0 0 0 15 2 0 0 2 -7 0 -1 -2c-1,1 -2,1 -2,2 -1,0 -2,0 -3,0 -1,0 -3,0 -3,-1 -1,-1 -2,-2 -2,-4l0 -8 -1 0 0 -2 7 -2zm23 -6l0 2 -1 0 0 19 1 0 0 2 -8 0 0 -2 1 0 0 -17 -1 1 0 -3 8 -2zm9 2l2 1 0 4 3 0 -1 2c0,0 0,0 0,0 0,0 0,0 0,0l-2 0 0 9c0,0 0,1 0,1 0,1 1,1 1,1 0,0 1,0 1,0 0,0 0,0 1,-1l1 2c-1,1 -2,1 -3,2 -1,0 -2,0 -3,0 -1,0 -2,0 -3,-1 -1,0 -1,-2 -1,-3l0 -10 -2 0 0 -2c2,0 3,-1 4,-2 1,0 2,-2 2,-3zm16 12c0,0 0,0 0,0 0,0 0,0 0,0 -1,0 -2,0 -3,1 0,0 0,1 0,2 0,1 0,2 0,2 0,1 1,1 2,1 0,0 1,0 1,-1 0,0 0,-1 0,-1l0 -4zm-5 -9l2 1 -1 1c1,0 2,-1 2,-1 1,0 2,0 3,0 1,0 3,0 4,1 1,1 1,3 1,4l0 10 2 0 0 2 -7 0 -1 -2c0,1 -1,1 -2,2 -1,0 -1,0 -2,0 -2,0 -3,0 -4,-1 -1,-1 -1,-2 -1,-4 0,-2 0,-3 2,-4 1,-1 3,-2 6,-2 0,0 0,0 1,0 0,0 0,0 0,0l0 -1c0,0 0,-1 0,-1 0,0 -1,-1 -2,-1 0,0 -1,1 -2,1 0,0 -1,1 -1,2l-2 -1 2 -6zm23 1l0 0 0 3c1,-1 2,-2 3,-2 1,-1 2,-1 3,-1 2,0 3,0 4,1 0,1 1,2 1,4l0 10 1 0 0 2 -8 0 0 -2 1 0 0 -9c0,-1 0,-1 -1,-2 0,0 0,0 -1,0 0,0 -1,0 -1,0 -1,0 -1,1 -2,1l0 10 1 0 0 2 -8 0 0 -2 1 0 0 -11 -1 0 0 -2 7 -2zm29 3l-4 5c0,-2 -1,-3 -2,-4 0,-1 -1,-1 -2,-1 0,0 0,0 -1,1 0,0 0,1 0,2 0,2 0,3 1,5 1,1 2,1 3,1 1,0 2,0 2,0 1,0 2,-1 2,-2l2 2c-1,1 -2,3 -4,4 -1,1 -3,1 -4,1 -2,0 -4,0 -5,-2 -2,-1 -2,-3 -2,-5 0,-3 0,-5 2,-7 2,-2 4,-3 7,-3 1,0 2,0 3,1 1,0 2,1 2,2zm15 1c0,1 0,1 0,1 0,0 -1,0 -1,0 0,0 0,0 -1,-1 -1,0 -1,0 -1,0 -1,0 -1,0 -1,1 -1,0 -1,0 -1,1l2 5 3 -7zm-8 -4c1,0 1,1 1,2 0,1 1,1 1,3 1,-2 2,-3 3,-4 0,-1 1,-1 2,-1 0,0 1,0 2,0 0,1 1,1 1,1 1,0 1,0 1,0 0,0 1,-1 1,-1l1 1c-1,0 -1,1 -1,1 0,1 -1,1 -1,2l-6 14c-1,1 -2,3 -3,4 -1,1 -2,1 -3,1 -1,0 -1,0 -2,0 0,0 -1,0 -1,0l1 -5c1,0 1,1 1,1 1,0 1,0 2,0 0,0 1,0 1,0 0,-1 1,-1 1,-2l0 0 -6 -12 -1 0 -1 -1 6 -4z"/>
 <path class="fil3" d="M37 204l0 -10 2 0 0 4 7 0 0 -4 2 0 0 10 -2 0 0 -5 -7 0 0 5 -2 0zm15 0l0 -8 7 0 0 1 -6 0 0 2 4 0 0 1 -4 0 0 3 6 0 0 1 -7 0zm10 0l0 -8 2 0 0 7 5 0 0 1 -7 0zm15 -7l-4 0 0 3 4 0c1,0 1,0 1,-1 0,0 0,0 0,0l0 -1c0,0 0,-1 0,-1 0,0 0,0 -1,0zm-5 7l0 -8 6 0c1,0 1,0 1,0 1,1 1,1 1,2l0 1c0,1 0,1 -1,1 0,1 0,1 -1,1l-5 0 0 3 -1 0zm21 0l0 -4 -5 -6 2 0 3 5 4 -5 2 0 -5 6 0 4 -1 0zm9 -1l7 0 0 -6 -7 0 0 6zm-1 -5c0,-1 0,-1 0,-2 1,0 1,0 2,0l5 0c1,0 1,0 2,0 0,1 0,1 0,2l0 4c0,1 0,1 0,1 -1,1 -1,1 -2,1l-5 0c-1,0 -1,0 -2,-1 0,0 0,0 0,-1l0 -4zm14 -2l0 7 5 0 0 -7 2 0 0 6c0,1 0,1 -1,1 0,1 0,1 -1,1l-5 0c0,0 -1,0 -1,-1 0,0 -1,0 -1,-1l0 -6 2 0zm21 1l0 7 -2 0 0 -7 -3 0 0 -1 8 0 0 1 -3 0zm7 6l6 0 0 -6 -6 0 0 6zm-2 -5c0,-1 0,-1 1,-2 0,0 0,0 1,0l5 0c1,0 2,0 2,0 0,1 0,1 0,2l0 4c0,1 0,1 0,1 0,1 -1,1 -2,1l-5 0c-1,0 -1,0 -1,-1 -1,0 -1,0 -1,-1l0 -4zm29 -2l-8 0 0 6 8 0 0 -2 -4 0 0 -2 5 0 0 3c0,1 0,2 0,2 -1,0 -1,1 -2,1l-6 0c-1,0 -1,-1 -2,-1 0,0 0,-1 0,-2l0 -4c0,-1 0,-2 0,-2 1,0 1,-1 2,-1l6 0c1,0 1,1 2,1 0,0 0,1 0,2l0 0 -1 0 0 -1zm10 1l-4 0 0 3 4 0c1,0 1,0 1,-1 0,0 0,0 0,0l0 -1c0,0 0,-1 0,-1 0,0 0,0 -1,0zm-5 7l0 -8 6 0c1,0 1,0 1,0 0,1 1,1 1,2l0 1c0,1 -1,1 -1,1 0,1 0,1 -1,1l-1 0 3 3 -2 0 -3 -3 -2 0 0 3 -1 0zm12 -1l6 0 0 -6 -6 0 0 6zm-1 -5c0,-1 0,-1 0,-2 0,0 1,0 2,0l5 0c1,0 1,0 1,0 1,1 1,1 1,2l0 4c0,1 0,1 -1,1 0,1 0,1 -1,1l-5 0c-1,0 -2,0 -2,-1 0,0 0,0 0,-1l0 -4zm14 6l-3 -8 1 0 2 6 3 -6 1 0 2 6 2 -6 1 0 -3 8 -1 0 -2 -6 -2 6 -1 0z"/>
 <line class="fil4 str0" x1="214" y1="199" x2="253" y2= "199" />
 <line class="fil4 str0" x1="-10" y1="199" x2="29" y2= "199" />
</symbol>
 <g id="Layer_x0020_1">
  <metadata id="CorelCorpID_0Corel-Layer"/>
  <path class="fil0" d="M141 126l34 -49c3,-5 5,-8 5,-10 0,-1 -2,-2 -4,-3 -2,-1 -5,-1 -8,-1l-5 0 0 -2 45 0 0 2c-8,0 -14,1 -17,2 -3,2 -7,6 -12,13l-16 23 48 83 12 0 0 2 -60 0 0 -2 12 0 -34 -58 0 58 0 -58z"/>
  <polygon class="fil1" points="105,61 132,184 144,184 144,186 82,186 82,184 97,184 74,61 "/>
  <path class="fil1" d="M123 127c-24,-3 -72,34 -72,50 0,5 3,7 11,7l3 0 0 2 -34 0 0 -2 2 0c4,0 8,0 8,-3 5,-20 45,-58 82,-59l0 5z"/>
 </g>
</svg>
