<?xml version="1.0" encoding="UTF-8"?>
<!DOCTYPE svg PUBLIC "-//W3C//DTD SVG 1.1//EN" "http://www.w3.org/Graphics/SVG/1.1/DTD/svg11.dtd">
<!-- Creator: CorelDRAW X7 -->
<svg xmlns="http://www.w3.org/2000/svg" xml:space="preserve" width="400px" height="120px" version="1.1" style="shape-rendering:geometricPrecision; text-rendering:geometricPrecision; image-rendering:optimizeQuality; fill-rule:evenodd; clip-rule:evenodd"
viewBox="0 0 400 120"
 xmlns:xlink="http://www.w3.org/1999/xlink">
 <defs>
  <style type="text/css">
   <![CDATA[
    .str0 {stroke:#9D9E9E;stroke-width:2.91615}
    .fil4 {fill:none;fill-rule:nonzero}
    .fil2 {fill:#FEFEFE;fill-rule:nonzero}
    .fil3 {fill:#898989;fill-rule:nonzero}
    .fil0 {fill:#009846;fill-rule:nonzero}
    .fil1 {fill:#264796;fill-rule:nonzero}
   ]]>
  </style>
 </defs>
 <g id="Layer_x0020_1">
  <metadata id="CorelCorpID_0Corel-Layer"/>
  <path class="fil0" d="M67 50l18 -26c2,-3 3,-5 3,-6 0,-1 -1,-1 -2,-2 -1,0 -3,-1 -5,-1l-2 0 0 -1 24 0 0 1c-4,1 -7,1 -9,2 -2,1 -4,3 -6,7l-9 13 27 46 6 0 0 1 -33 0 0 -1 6 0 -18 -33 0 33 0 -33z"/>
  <polygon class="fil1" points="47,14 62,83 68,83 68,84 34,84 34,83 42,83 30,14 "/>
  <path class="fil1" d="M56 51c-13,-2 -39,19 -39,28 0,2 2,4 6,4l1 0 0 1 -18 0 0 -1 1 0c2,0 4,0 5,-2 2,-11 24,-32 45,-33l-1 3z"/>
  <path class="fil2" d="M153 29l-3 9 6 0 -3 -9zm-1 -6l6 0 7 21 1 0 0 3 -10 0 0 -3 2 0 -1 -3 -8 0 -1 3 2 0 0 3 -7 0 0 -3 2 0 7 -21zm31 10l-5 4c0,-1 -1,-3 -1,-3 -1,-1 -2,-2 -2,-2 -1,0 -1,1 -2,1 0,0 0,1 0,2 0,2 0,4 1,5 1,1 2,2 4,2 0,0 1,0 2,0 0,-1 1,-1 2,-2l1 1c-1,2 -2,3 -3,5 -2,1 -3,1 -5,1 -2,0 -4,-1 -5,-2 -2,-2 -2,-4 -2,-6 0,-3 1,-5 2,-7 2,-2 4,-3 7,-3 1,0 2,1 3,1 1,1 2,2 3,3zm17 0l-5 4c0,-1 -1,-3 -1,-3 -1,-1 -2,-2 -2,-2 -1,0 -1,1 -1,1 -1,0 -1,1 -1,2 0,2 1,4 1,5 1,1 2,2 4,2 1,0 1,0 2,0 1,-1 1,-1 2,-2l1 1c-1,2 -2,3 -3,5 -2,1 -3,1 -5,1 -2,0 -4,-1 -5,-2 -2,-2 -2,-4 -2,-6 0,-3 1,-5 2,-7 2,-2 4,-3 7,-3 1,0 2,1 3,1 1,1 2,2 3,3zm15 7c0,-2 -1,-4 -2,-6 -1,-1 -2,-2 -3,-2 0,0 -1,0 -1,1 -1,0 -1,1 -1,3 0,2 1,4 1,6 1,2 2,2 3,2 1,0 2,0 2,-1 0,0 1,-1 1,-3zm-4 -11c3,0 5,1 7,3 2,1 3,4 3,6 0,3 -1,5 -3,7 -2,1 -4,2 -7,2 -2,0 -5,-1 -6,-2 -2,-2 -3,-4 -3,-7 0,-2 1,-5 3,-6 1,-2 4,-3 6,-3zm20 0l0 0 0 12c0,1 0,1 0,1 1,1 1,1 2,1 0,0 0,0 1,0 0,-1 1,-1 1,-1l0 -9 -1 0 0 -2 7 -2 0 0 0 15 1 0 0 3 -6 0 -1 -3c-1,1 -2,2 -3,2 -1,1 -2,1 -2,1 -2,0 -3,0 -4,-1 -1,-1 -1,-3 -1,-4l0 -9 -1 0 0 -2 7 -2zm22 0l0 0 0 3c2,-1 3,-2 4,-2 1,-1 2,-1 2,-1 2,0 3,1 4,2 1,0 1,2 1,3l0 10 1 0 0 3 -8 0 0 -3 1 0 0 -9c0,0 0,-1 0,-1 -1,-1 -1,-1 -2,-1 0,0 -1,0 -1,1 -1,0 -1,0 -2,1l0 9 2 0 0 3 -9 0 0 -3 1 0 0 -11 -1 0 0 -2 7 -2zm21 -4l2 1 0 4 3 0 0 2c0,0 0,0 0,0 0,1 -1,1 -1,1l-2 0 0 8c0,1 0,2 1,2 0,0 0,1 1,1 0,0 0,0 0,-1 1,0 1,0 1,0l1 1c-1,1 -2,2 -3,2 -1,1 -2,1 -3,1 -1,0 -2,0 -3,-1 -1,-1 -1,-2 -1,-4l0 -9 -2 0 0 -2c2,-1 3,-1 4,-2 1,-1 2,-2 2,-4zm15 4l0 0c0,1 0,2 0,2 0,0 0,1 0,1l0 12 1 0 0 3 -8 0 0 -3 1 0 0 -11 -1 0 0 -2 7 -2zm-2 -5c1,0 1,0 2,0 0,1 0,1 0,2 0,1 0,1 -1,2 -1,1 -2,1 -3,1 0,0 -1,0 -1,-1 -1,0 -1,-1 -1,-1 0,-1 0,-2 1,-2 1,-1 2,-1 3,-1zm14 5l0 0 0 3c2,-1 3,-2 4,-2 1,-1 2,-1 2,-1 2,0 3,1 4,2 1,0 1,2 1,3l0 10 1 0 0 3 -8 0 0 -3 1 0 0 -9c0,0 0,-1 0,-1 -1,-1 -1,-1 -2,-1 0,0 -1,0 -1,1 -1,0 -1,0 -2,1l0 9 2 0 0 3 -9 0 0 -3 1 0 0 -11 -1 0 0 -2 7 -2zm21 4c0,2 0,4 1,5 0,2 1,3 2,3 1,0 1,-1 1,-1 1,-1 1,-1 1,-2 0,-2 0,-3 -1,-5 -1,-1 -2,-2 -3,-2 0,0 -1,0 -1,1 0,0 0,1 0,1zm2 14c0,0 0,1 0,1 0,1 0,1 0,1 0,1 0,1 0,2 0,0 1,0 1,0 1,0 1,0 1,0 0,0 0,-1 0,-1 0,-1 0,-1 0,-2 0,0 -1,-1 -2,-1zm-8 -3c1,0 2,0 3,-1 1,0 2,0 3,-1 -2,0 -3,-1 -4,-2 -1,-1 -2,-3 -2,-4 0,-2 1,-4 2,-5 2,-1 4,-2 6,-2 1,0 1,0 2,0 1,0 1,0 2,1 0,-2 0,-3 1,-3 0,0 1,-1 2,-1 0,0 0,0 0,0 1,1 1,1 1,1l-1 3c0,0 0,0 0,0 -1,-1 -1,-1 -1,-1 0,0 0,0 0,1 0,0 -1,0 -1,0 0,0 1,1 2,2 1,1 1,2 1,4 0,2 0,3 -2,5 -1,1 -3,2 -6,2 2,1 5,1 6,2 1,1 2,2 2,3 0,2 -1,3 -2,4 -2,0 -3,1 -5,1 -2,0 -4,0 -4,-1 -1,-1 -2,-1 -2,-2 0,-1 0,-2 1,-2 0,-1 1,-1 2,-2 0,0 -1,0 -1,0 -1,0 -1,0 -1,0 -1,0 -1,0 -1,0 0,0 -1,0 -1,0l-2 -2zm34 -9c0,0 0,1 -1,1 0,1 0,1 0,2 0,1 0,2 1,3 1,1 2,2 4,2 0,0 0,0 1,0 0,0 0,-1 1,-1 -1,-1 -2,-2 -3,-3 -1,-1 -2,-3 -3,-4zm5 -3c0,1 1,2 2,3 1,1 2,2 3,3 0,0 0,0 0,-1 0,0 0,-1 0,-1 0,-1 0,-1 0,-2 0,0 -1,0 -1,0l0 -3 7 0 0 3 -2 0c0,1 -1,2 -1,3 0,1 -1,2 -1,4 0,0 1,1 2,1 0,1 1,1 2,1 0,0 1,0 1,0 0,0 0,0 0,-1l2 1c-1,2 -2,3 -3,3 -1,1 -2,1 -3,1 -1,0 -1,0 -2,-1 -1,0 -2,-1 -3,-1 -1,0 -2,1 -3,1 -1,1 -3,1 -4,1 -2,0 -4,-1 -6,-2 -1,-1 -2,-3 -2,-5 0,-2 0,-3 1,-4 1,-1 3,-3 5,-4 -1,0 -1,-1 -1,-2 0,0 0,-1 0,-1 0,-2 0,-4 2,-5 1,-1 3,-1 5,-1 2,0 3,0 4,1 1,0 2,1 2,3 0,1 -1,2 -1,2 -1,1 -3,2 -5,3zm-1 -2c0,-1 1,-1 1,-2 1,0 1,-1 1,-1 0,-1 0,-1 -1,-2 0,0 0,0 -1,0 0,0 -1,0 -1,0 0,1 0,1 0,2 0,0 0,0 0,1 0,0 0,1 1,2z"/>
  <path class="fil2" d="M121 58l2 0 0 1 13 0 0 -1 3 0 0 7 -2 0c0,-1 0,-2 -1,-2 -1,-1 -1,-1 -2,-1l-1 0 0 18 2 0 0 2 -11 0 0 -2 2 0 0 -18 0 0c-1,0 -2,0 -3,1 0,0 0,1 -1,2l-2 0 1 -7zm30 15c0,0 0,0 0,0 -1,0 -1,0 -1,0 -1,0 -1,1 -2,1 0,1 -1,1 -1,2 0,1 0,2 1,2 0,1 1,1 1,1 1,0 1,0 2,0 0,-1 0,-1 0,-2l0 -4zm-6 -9l2 1 0 1c1,0 1,-1 2,-1 1,0 2,0 2,0 2,0 4,0 5,1 1,1 1,3 1,4l0 10 2 0 0 2 -7 0 -1 -1c-1,0 -1,1 -2,1 -1,1 -2,1 -2,1 -2,0 -3,-1 -4,-2 -1,-1 -2,-2 -2,-4 0,-2 1,-3 2,-4 2,-1 4,-2 7,-2 0,0 0,0 0,0 1,0 1,0 1,0l0 -1c0,0 0,-1 0,-1 -1,0 -1,0 -2,0 -1,0 -1,0 -2,0 -1,0 -1,1 -2,2l-2 -1 2 -6zm17 1l9 0 0 3 -1 0 2 3 2 -3 -1 0 0 -3 5 0 0 3 -1 0 -4 5 4 7 1 0 0 2 -9 0 0 -2 1 0 -2 -4 -3 4 1 0 0 2 -6 0 0 -2 2 0 4 -7 -3 -5 -1 0 0 -3zm44 -4l1 -1 2 2 -7 6 -2 -2c0,0 1,0 1,-1 0,0 0,0 0,-1 0,0 0,-1 -1,-1 0,-1 -1,-1 -1,-1 -1,0 -2,0 -3,1 0,1 0,3 0,4 0,3 0,6 2,8 1,1 3,2 5,2 1,0 2,0 3,0 0,-1 1,-1 2,-2l2 1c-2,3 -3,4 -5,5 -1,1 -3,2 -5,2 -3,0 -6,-1 -8,-3 -2,-2 -3,-5 -3,-9 0,-1 0,-3 1,-4 0,-2 1,-3 2,-4 1,-2 3,-3 4,-3 2,-1 3,-2 5,-2 1,0 2,1 3,1 1,0 2,1 2,2zm17 15c0,-2 0,-4 -1,-6 -1,-2 -2,-2 -3,-2 -1,0 -1,0 -1,1 -1,0 -1,1 -1,3 0,2 0,4 1,6 1,1 2,2 3,2 1,0 2,0 2,-1 0,-1 0,-2 0,-3zm-3 -11c3,0 5,1 7,3 2,1 3,3 3,6 0,2 -1,5 -3,6 -2,2 -4,3 -7,3 -3,0 -5,-1 -7,-3 -1,-1 -2,-4 -2,-6 0,-3 1,-5 2,-6 2,-2 4,-3 7,-3zm20 0l0 0 0 3c1,-1 2,-2 3,-2 1,-1 2,-1 3,-1 2,0 3,0 4,1 0,1 1,2 1,4l0 10 1 0 0 2 -8 0 0 -2 1 0 0 -9c0,-1 0,-1 -1,-1 0,-1 -1,-1 -1,-1 -1,0 -1,0 -2,0 0,1 -1,1 -1,1l0 10 1 0 0 2 -8 0 0 -2 1 0 0 -11 -1 0 0 -2 7 -2zm28 2l-3 4c-1,-1 -2,-2 -2,-3 -1,0 -2,-1 -2,-1 -1,0 -1,1 -1,1 0,0 -1,0 -1,0 0,1 1,1 1,1 0,1 1,1 2,2 3,1 4,2 5,3 1,1 1,2 1,3 0,1 -1,3 -2,4 -1,1 -3,2 -5,2 -2,0 -3,0 -4,-1 -1,0 -2,-1 -3,-2l3 -4c1,1 2,2 3,3 1,1 2,1 2,1 1,0 1,0 1,0 0,0 1,-1 1,-1 0,-1 -2,-1 -4,-3 0,0 0,0 0,0 0,0 0,0 0,0 -3,-1 -5,-3 -5,-5 0,-2 1,-3 2,-4 1,-1 3,-2 5,-2 1,0 2,0 3,0 1,1 2,1 3,2zm10 -2l0 0 0 12c0,0 0,1 0,1 1,1 1,1 2,1 0,0 0,0 1,-1 0,0 1,0 1,0l0 -9 -1 0 0 -2 7 -2 0 0 0 15 1 0 0 2 -7 0 0 -2c-1,1 -2,2 -3,2 -1,1 -2,1 -2,1 -2,0 -3,-1 -4,-2 -1,0 -1,-2 -1,-3l0 -9 -1 0 0 -2 7 -2zm23 -6l0 2 -1 0 0 19 1 0 0 2 -8 0 0 -2 1 0 0 -17 -1 1 0 -3 8 -2zm9 2l2 1 0 4 3 0 0 2c0,0 0,0 0,0 0,0 -1,0 -1,0l-2 0 0 9c0,1 0,1 1,2 0,0 0,0 1,0 0,0 0,0 0,0 1,0 1,0 1,0l1 1c-1,1 -2,2 -3,2 -1,1 -2,1 -3,1 -1,0 -2,-1 -3,-1 -1,-1 -1,-2 -1,-4l0 -10 -2 0 0 -2c2,0 3,-1 4,-2 1,0 2,-2 2,-3zm17 12c0,0 0,0 0,0 -1,0 -1,0 -1,0 -1,0 -1,1 -2,1 0,1 -1,1 -1,2 0,1 0,2 1,2 0,1 1,1 1,1 1,0 1,0 2,0 0,-1 0,-1 0,-2l0 -4zm-6 -9l2 1 0 1c1,0 1,-1 2,-1 1,0 2,0 2,0 2,0 4,0 5,1 1,1 1,3 1,4l0 10 2 0 0 2 -7 0 -1 -1c-1,0 -1,1 -2,1 -1,1 -2,1 -2,1 -2,0 -3,-1 -4,-2 -1,-1 -2,-2 -2,-4 0,-2 1,-3 2,-4 2,-1 4,-2 7,-2 0,0 0,0 0,0 1,0 1,0 1,0l0 -1c0,0 0,-1 0,-1 -1,0 -1,0 -2,0 -1,0 -1,0 -2,0 -1,0 -1,1 -2,2l-2 -1 2 -6zm24 1l1 0 -1 3c2,-1 3,-2 4,-2 1,-1 2,-1 3,-1 1,0 2,0 3,1 1,1 1,2 1,4l0 10 2 0 0 2 -9 0 0 -2 1 0 0 -9c0,-1 0,-1 0,-1 -1,-1 -1,-1 -2,-1 0,0 -1,0 -1,0 -1,1 -1,1 -2,1l0 10 2 0 0 2 -9 0 0 -2 1 0 0 -11 -1 0 0 -2 7 -2zm30 3l-4 5c-1,-2 -1,-3 -2,-4 0,-1 -1,-1 -2,-1 0,0 -1,0 -1,1 0,0 0,1 0,2 0,2 0,4 1,5 1,1 2,2 3,2 1,0 2,0 2,-1 1,0 2,-1 2,-1l2 1c-1,2 -2,3 -4,4 -1,1 -3,2 -4,2 -3,0 -4,-1 -6,-2 -1,-2 -2,-4 -2,-6 0,-3 1,-5 3,-7 2,-2 4,-3 6,-3 2,0 3,0 4,1 1,0 2,1 2,2zm15 2c0,0 0,0 0,0 0,0 0,0 0,0 -1,0 -1,0 -2,0 0,-1 -1,-1 -1,-1 0,0 -1,0 -1,1 0,0 -1,1 -1,1l2 5 3 -6zm-7 -5c0,1 0,1 0,2 1,1 1,2 1,3 1,-2 2,-3 3,-4 1,-1 1,-1 2,-1 1,0 1,0 2,1 1,0 1,0 2,0 0,0 0,0 1,0 0,0 0,-1 0,-1l1 1c0,0 0,1 -1,1 0,1 0,1 -1,2l-6 14c-1,2 -2,3 -3,4 -1,1 -2,2 -3,2 -1,0 -1,0 -2,0 0,-1 -1,-1 -1,-1l1 -4c1,0 1,0 2,0 0,0 0,0 1,0 0,0 1,0 1,0 1,0 1,-1 1,-1l1 -1 -7 -12 -1 0 -1 -1 7 -4z"/>
  <path class="fil3" d="M115 107l0 -10 1 0 0 4 8 0 0 -4 1 0 0 10 -1 0 0 -5 -8 0 0 5 -1 0zm15 0l0 -8 8 0 0 1 -7 0 0 2 4 0 0 1 -4 0 0 2 7 0 0 2 -8 0zm10 0l0 -8 2 0 0 6 6 0 0 2 -8 0zm16 -7l-4 0 0 2 4 0c0,0 1,0 1,0 0,0 0,0 0,0l0 -1c0,-1 0,-1 0,-1 0,0 -1,0 -1,0zm-6 7l0 -8 7 0c0,0 1,0 1,0 0,0 0,1 0,1l0 2c0,1 0,1 0,1 0,0 -1,1 -1,1l-5 0 0 3 -2 0zm22 0l0 -5 -5 -5 2 0 4 4 3 -4 2 0 -5 5 0 5 -1 0zm10 -2l6 0 0 -5 -6 0 0 5zm-2 -4c0,-1 0,-2 1,-2 0,0 0,0 1,0l6 0c0,0 1,0 1,0 0,0 1,1 1,2l0 4c0,0 -1,1 -1,1 0,0 -1,1 -1,1l-6 0c-1,0 -1,-1 -1,-1 -1,0 -1,-1 -1,-1l0 -4zm14 -2l0 6 6 0 0 -6 2 0 0 6c0,0 0,1 -1,1 0,0 -1,1 -1,1l-5 0c-1,0 -1,-1 -2,-1 0,0 0,-1 0,-1l0 -6 1 0zm22 1l0 7 -2 0 0 -7 -3 0 0 -1 8 0 0 1 -3 0zm7 5l6 0 0 -5 -6 0 0 5zm-1 -4c0,-1 0,-2 0,-2 0,0 1,0 1,0l6 0c1,0 1,0 2,0 0,0 0,1 0,2l0 4c0,0 0,1 0,1 -1,0 -1,1 -2,1l-6 0c0,0 -1,-1 -1,-1 0,0 0,-1 0,-1l0 -4zm29 -3l-8 0 0 7 8 0 0 -2 -4 0 0 -2 5 0 0 3c0,1 0,2 0,2 -1,0 -1,1 -2,1l-6 0c-1,0 -2,-1 -2,-1 0,0 0,-1 0,-2l0 -5c0,0 0,-1 0,-1 0,-1 1,-1 2,-1l6 0c1,0 1,0 2,1 0,0 0,0 0,1l0 1 -1 0 0 -2zm11 2l-4 0 0 2 4 0c0,0 0,0 0,0 1,0 1,0 1,0l0 -1c0,-1 0,-1 -1,-1 0,0 0,0 0,0zm-6 7l0 -8 6 0c1,0 1,0 2,0 0,0 0,1 0,1l0 2c0,1 0,1 0,1 -1,0 -1,1 -2,1l-1 0 4 3 -2 0 -3 -3 -2 0 0 3 -2 0zm13 -2l6 0 0 -5 -6 0 0 5zm-2 -4c0,-1 0,-2 1,-2 0,0 0,0 1,0l6 0c0,0 1,0 1,0 0,0 1,1 1,2l0 4c0,0 -1,1 -1,1 0,0 -1,1 -1,1l-6 0c-1,0 -1,-1 -1,-1 -1,0 -1,-1 -1,-1l0 -4zm15 6l-3 -8 1 0 2 6 3 -6 1 0 2 6 2 -6 1 0 -3 8 -1 0 -2 -6 -2 6 -1 0z"/>
  <line class="fil4 str0" x1="297" y1="102" x2="336" y2= "102" />
  <line class="fil4 str0" x1="67" y1="102" x2="106" y2= "102" />
 </g>
</svg>
